<?xml version="1.0" encoding="utf-8"?>
<!-- Generator: Adobe Illustrator 27.9.0, SVG Export Plug-In . SVG Version: 6.00 Build 0)  -->
<svg version="1.1" id="圖層_1" xmlns="http://www.w3.org/2000/svg" xmlns:xlink="http://www.w3.org/1999/xlink" x="0px" y="0px"
	 viewBox="0 0 40 40" style="enable-background:new 0 0 40 40;" xml:space="preserve">
<style type="text/css">
	.st0{fill:#FF8A44;}
	.st1{opacity:0.3;fill:#FFFFFF;enable-background:new    ;}
	.st2{opacity:0.6;fill:#FFFFFF;enable-background:new    ;}
	.st3{opacity:0.1;enable-background:new    ;}
	.st4{opacity:0.7;}
	.st5{opacity:0.7;enable-background:new    ;}
	.st6{opacity:0.4;fill:#FFFFFF;enable-background:new    ;}
</style>
<g id="freepik--aircraft-2--inject-100">
	<path class="st0" d="M14.2,25.2c-0.2-0.2-0.4-0.3-0.7-0.4l-0.7-0.3L11,25.2l4.3,2.1c0.2,0.1,0.4,0.1,0.7,0.1l0.1-0.1
		c0.1,0,0.1-0.1,0.1-0.2l0,0L14.2,25.2z"/>
	<path class="st1" d="M14.2,25.2c-0.2-0.2-0.4-0.3-0.7-0.4l-0.7-0.3L11,25.2l4.3,2.1c0.2,0.1,0.4,0.1,0.7,0.1l0.1-0.1
		c0.1,0,0.1-0.1,0.1-0.2l0,0L14.2,25.2z"/>
	<polygon class="st0" points="14.2,21.5 12.3,14.5 10.7,15.2 10.5,23.1 14.3,21.8 	"/>
	<polygon class="st2" points="14.2,21.5 12.3,14.5 10.7,15.2 10.5,23.1 14.3,21.8 	"/>
	<path class="st0" d="M24.3,24l13.9,5.9c0.2,0.1,0.4,0.1,0.7,0.1l0.5-0.1c0.1-0.1,0.3-0.2,0.2-0.4c0-0.1-0.1-0.1-0.1-0.1
		C39.3,29.1,39.2,29,39,29c-0.7-0.6-8.9-7.3-8.9-7.3L24.3,24z"/>
	<path class="st1" d="M24.3,24l13.9,5.9c0.2,0.1,0.4,0.1,0.7,0.1l0.5-0.1c0.1-0.1,0.3-0.2,0.2-0.4c0-0.1-0.1-0.1-0.1-0.1
		C39.3,29.1,39.2,29,39,29c-0.7-0.6-8.9-7.3-8.9-7.3L24.3,24z"/>
	<path class="st0" d="M8.1,24.3c-0.2,0.4-0.1,0.8,0.3,1c0,0,0.1,0,0.2,0.1c1.9,0.5,8.6,1.9,18.1-1.9c10.8-4.3,13.3-6.3,13-7.7
		c-0.1-0.1-0.1-0.2-0.1-0.4c-0.4-0.7-2.3-3.3-7.1-1.4l-21.9,8.7C10.7,22.6,8.7,23.4,8.1,24.3z"/>
	<path class="st0" d="M14.8,21L32.4,14c4.7-1.9,6.7,0.8,7.1,1.4c0.1,0.1,0.2,0.3,0.1,0.4c0.3,1.5-2.2,3.5-13,7.7
		c-9.6,3.8-16.3,2.5-18.1,1.9c-0.4-0.1-0.7-0.5-0.4-0.9c0-0.1,0-0.1,0.1-0.2c0.6-1,2.6-1.7,2.6-1.7L14.8,21z"/>
	<path class="st3" d="M31.5,18.2c-7.9,3.3-18.1,6.8-22.2,7.5c2.5,0.6,8.8,1.4,17.5-2c10.8-4.3,13.3-6.3,13-7.7
		C38.7,15.7,36.4,16,31.5,18.2z"/>
	<g class="st4">
		<rect x="10.9" y="19.4" transform="matrix(0.9331 -0.3596 0.3596 0.9331 -5.4589 9.6517)" width="24.5" height="0.2"/>
	</g>
	<path class="st0" d="M19.2,21.5l3.8-1.5c0.4-0.1,0.6-0.6,0.6-1c-0.1-0.4-0.4-0.9-1.2-1.3l-20-7.3c-0.1,0-0.3-0.1-0.4-0.1l-1.6,0.1
		c-0.1,0-0.1,0.1-0.1,0.1s0,0.1,0.1,0.1L19.2,21.5z"/>
	<path class="st1" d="M19.2,21.5l3.8-1.5c0.4-0.1,0.6-0.6,0.6-1c-0.1-0.4-0.4-0.9-1.2-1.3l-20-7.3c-0.1,0-0.3-0.1-0.4-0.1l-1.6,0.1
		c-0.1,0-0.1,0.1-0.1,0.1s0,0.1,0.1,0.1L19.2,21.5z"/>
	<g class="st4">
		<path d="M13.6,22.7L13.6,22.7c-0.1,0.1-0.2-0.1-0.2-0.2l0.1-0.2c0-0.1,0.1-0.3,0.2-0.4l0,0c0.1-0.1,0.2,0.1,0.2,0.2l-0.1,0.2
			C13.8,22.5,13.7,22.7,13.6,22.7z"/>
		<path d="M14.4,22.3L14.4,22.3c-0.1,0.1-0.2-0.1-0.2-0.2l0.1-0.2c0-0.1,0.1-0.3,0.2-0.4l0,0c0.1-0.1,0.2,0.1,0.2,0.2l-0.1,0.2
			C14.7,22.2,14.6,22.2,14.4,22.3z"/>
		<path d="M15.4,22L15.4,22c-0.1,0.1-0.2-0.1-0.2-0.2l0.1-0.2c0-0.1,0.1-0.3,0.2-0.4l0,0c0.1-0.1,0.2,0.1,0.2,0.2l-0.1,0.2
			C15.6,21.8,15.5,21.9,15.4,22z"/>
		<path d="M16.3,21.7L16.3,21.7c-0.1,0.1-0.2-0.1-0.2-0.2l0.1-0.2c0-0.1,0.1-0.3,0.2-0.4l0,0c0.1-0.1,0.2,0.1,0.2,0.2l-0.1,0.2
			C16.4,21.5,16.4,21.6,16.3,21.7z"/>
		<path d="M17.1,21.3L17.1,21.3c-0.1,0.1-0.2-0.1-0.2-0.2l0.1-0.2c0-0.1,0.1-0.3,0.2-0.4l0,0c0.1-0.1,0.2,0.1,0.2,0.2l-0.1,0.2
			C17.4,21.1,17.3,21.2,17.1,21.3z"/>
		<path d="M24,18.5L24,18.5c-0.1,0.1-0.2-0.1-0.2-0.2l0.1-0.2c0-0.1,0.1-0.3,0.2-0.4l0,0c0.1-0.1,0.2,0.1,0.2,0.2l-0.1,0.2
			C24.3,18.4,24.2,18.5,24,18.5z"/>
		<path d="M25,18.2L25,18.2c-0.1,0.1-0.2-0.1-0.2-0.2l0.1-0.2c0-0.1,0.1-0.3,0.2-0.4l0,0c0.1-0.1,0.2,0.1,0.2,0.2l-0.1,0.2
			C25.1,18,25.1,18.1,25,18.2z"/>
		<path d="M25.8,17.9L25.8,17.9c-0.1,0.1-0.2-0.1-0.2-0.2l0.1-0.2c0-0.1,0.1-0.3,0.2-0.4l0,0c0.1-0.1,0.2,0.1,0.2,0.2L26,17.5
			C26.1,17.7,26,17.8,25.8,17.9z"/>
		<path d="M26.7,17.5L26.7,17.5c-0.1,0.1-0.2-0.1-0.2-0.2l0.1-0.2c0-0.1,0.1-0.3,0.2-0.4l0,0c0.1-0.1,0.2,0.1,0.2,0.2l-0.1,0.2
			C27,17.3,26.8,17.4,26.7,17.5z"/>
		<path d="M27.6,17.2L27.6,17.2c-0.1,0.1-0.2-0.1-0.2-0.2l0.1-0.2c0-0.1,0.1-0.3,0.2-0.4l0,0c0.1-0.1,0.2,0.1,0.2,0.2l-0.1,0.2
			C27.9,16.9,27.8,17.1,27.6,17.2z"/>
		<path d="M28.6,16.8L28.6,16.8c-0.1,0.1-0.2-0.1-0.2-0.2l0.1-0.2c0-0.1,0.1-0.3,0.2-0.4l0,0c0.1-0.1,0.2,0.1,0.2,0.2l-0.1,0.2
			C28.8,16.6,28.7,16.7,28.6,16.8z"/>
		<path d="M29.5,16.4L29.5,16.4c-0.1,0.1-0.2-0.1-0.2-0.2l0.1-0.2c0-0.1,0.1-0.3,0.2-0.4l0,0c0.1-0.1,0.2,0.1,0.2,0.2L29.8,16
			C29.7,16.3,29.7,16.4,29.5,16.4z"/>
		<path d="M30.4,16.1L30.4,16.1c-0.1,0.1-0.2-0.1-0.2-0.2l0.1-0.2c0-0.1,0.1-0.3,0.2-0.4l0,0c0.1-0.1,0.2,0.1,0.2,0.2l-0.1,0.2
			C30.6,15.8,30.5,16,30.4,16.1z"/>
		<path d="M31.3,15.8L31.3,15.8c-0.1,0.1-0.2-0.1-0.2-0.2l0.1-0.2c0-0.1,0.1-0.3,0.2-0.4l0,0c0.1-0.1,0.2,0.1,0.2,0.2l-0.1,0.2
			C31.6,15.5,31.4,15.7,31.3,15.8z"/>
		<path d="M32.2,15.3L32.2,15.3C32,15.4,32,15.3,32,15.1l0.1-0.2c0-0.1,0.1-0.3,0.2-0.4l0,0c0.1-0.1,0.2,0.1,0.2,0.2l-0.1,0.2
			C32.4,15.1,32.3,15.2,32.2,15.3z"/>
	</g>
	<path class="st5" d="M35.8,13.7c-0.4,0.1-0.6,0.3-0.8,0.5c0,0,0.3,0,0.9,0L35.8,13.7z"/>
	<g class="st4">
		<path d="M37.1,14.3c0.6,0,1,0.1,1.5,0.3c-0.5-0.3-0.9-0.7-1.5-0.8L37.1,14.3z"/>
		<path d="M36.7,13.6c-0.2-0.1-0.4,0-0.7,0.1l0.1,0.6c0.2,0.1,0.4,0,0.7,0.1L36.7,13.6z"/>
	</g>
	<path class="st0" d="M18.9,15.6c-1.2,0.6-2.3,1.2-3.5,1.9c-0.3,0.9,0.1,1.9,1,2.4c1.3-0.2,2.6-0.6,3.8-1c0.6-0.3,1-1.2,0.5-2.1
		C20.4,15.9,19.6,15.3,18.9,15.6z"/>
	<path class="st3" d="M18.9,15.6c-1.2,0.6-2.3,1.2-3.5,1.9c-0.3,0.9,0.1,1.9,1,2.4c1.3-0.2,2.6-0.6,3.8-1c0.6-0.3,1-1.2,0.5-2.1
		C20.4,15.9,19.6,15.3,18.9,15.6z"/>
	<path class="st5" d="M20.6,16.9c0.3,0.7,0.1,1.5-0.4,1.7c-0.5,0.2-1.2-0.2-1.6-0.9c-0.3-0.7-0.1-1.5,0.4-1.7
		C19.5,15.8,20.2,16.1,20.6,16.9z"/>
	<path class="st0" d="M31.9,22.7c-1,0.5-2.2,1-3.1,1.7c-0.3,0.8,0.1,1.7,0.8,2.1c1.2-0.3,2.4-0.5,3.5-0.9c0.6-0.3,0.8-1.1,0.5-1.9
		S32.5,22.6,31.9,22.7z"/>
	<path class="st3" d="M31.9,22.7c-1,0.5-2.2,1-3.1,1.7c-0.3,0.8,0.1,1.7,0.8,2.1c1.2-0.3,2.4-0.5,3.5-0.9c0.6-0.3,0.8-1.1,0.5-1.9
		S32.5,22.6,31.9,22.7z"/>
	<path class="st5" d="M33.4,23.9c0.3,0.6,0.1,1.4-0.4,1.6c-0.5,0.2-1.1-0.2-1.4-0.8c-0.3-0.6-0.1-1.4,0.4-1.6
		C32.5,22.9,33.1,23.3,33.4,23.9z"/>
	<path class="st0" d="M10.6,23.5l-6.5-2.7c-0.1,0-0.3-0.1-0.4-0.1l-0.9,0c-0.1,0-0.1,0.1-0.2,0.2c0,0.1,0.1,0.1,0.1,0.1L9,24
		L10.6,23.5z"/>
	<path class="st6" d="M10.6,23.5l-6.5-2.7c-0.1,0-0.3-0.1-0.4-0.1l-0.9,0c-0.1,0-0.1,0.1-0.2,0.2c0,0.1,0.1,0.1,0.1,0.1L9,24
		L10.6,23.5z"/>
</g>
</svg>
