<?xml version="1.0" encoding="utf-8"?>
<!-- Generator: Adobe Illustrator 27.9.0, SVG Export Plug-In . SVG Version: 6.00 Build 0)  -->
<svg version="1.1" id="capa-1" xmlns="http://www.w3.org/2000/svg" xmlns:xlink="http://www.w3.org/1999/xlink" x="0px" y="0px"
	 viewBox="0 0 40 40" style="enable-background:new 0 0 40 40;" xml:space="preserve">
<style type="text/css">
	.st0{fill:#FF5851;}
	.st1{opacity:0.1;fill:#FFFFFF;enable-background:new    ;}
	.st2{opacity:0.3;fill:#FFFFFF;enable-background:new    ;}
	.st3{opacity:0.8;fill:#FFFFFF;enable-background:new    ;}
	.st4{opacity:0.3;enable-background:new    ;}
	.st5{opacity:0.8;}
	.st6{fill:#FFFFFF;}
</style>
<g id="freepik--Character--inject-26">
	<path class="st0" d="M0.1,18.7l6.8,14.8c0.3,0.7,1.2,1,1.9,0.7l1.1-0.5l24.9-11.4c0.7-0.3,1-1.2,0.7-1.9l-6-13.1l-0.8-1.7
		c-0.3-0.7-1.2-1-1.9-0.7l-26,11.9C0.1,17.2-0.2,18,0.1,18.7z"/>
	<path class="st1" d="M0.1,18.7l6.8,14.8c0.3,0.7,1.2,1,1.9,0.7l1.1-0.5l24.9-11.4c0.7-0.3,1-1.2,0.7-1.9l-6-13.1l-0.8-1.7
		c-0.3-0.7-1.2-1-1.9-0.7l-26,11.9C0.1,17.2-0.2,18,0.1,18.7z"/>
	<rect x="3.1" y="17.8" transform="matrix(0.9092 -0.4163 0.4163 0.9092 -7.3703 9.8186)" class="st0" width="31.4" height="8"/>
	<rect x="3.1" y="17.8" transform="matrix(0.9092 -0.4163 0.4163 0.9092 -7.3703 9.8186)" class="st2" width="31.4" height="8"/>
	<rect x="11.9" y="19" transform="matrix(0.9092 -0.4163 0.4163 0.9092 -6.5264 10.943)" class="st0" width="19.9" height="2.9"/>
	<rect x="11.9" y="19" transform="matrix(0.9092 -0.4163 0.4163 0.9092 -6.5264 10.943)" class="st3" width="19.9" height="2.9"/>
	<rect x="1.3" y="15.4" transform="matrix(0.9079 -0.4191 0.4191 0.9079 -5.7666 8.7669)" class="st0" width="31.5" height="4.3"/>
	<rect x="1.3" y="15.4" transform="matrix(0.9079 -0.4191 0.4191 0.9079 -5.7666 8.7669)" class="st4" width="31.5" height="4.3"/>
	<path class="st0" d="M4,18.9l5.8,14.8l24.9-11.4c0.7-0.3,1-1.2,0.7-1.9l-6-13.1L4.8,17.1C4.1,17.3,3.7,18.2,4,18.9z"/>
	<path class="st0" d="M5.7,17.1l27-9.5c0.7-0.3,1.5,0.1,1.8,0.9l5.4,15.4c0.3,0.7-0.1,1.5-0.9,1.8l-27,9.5c-0.7,0.3-1.5-0.1-1.8-0.9
		L4.9,18.9C4.6,18.2,5,17.4,5.7,17.1z"/>
	<path class="st1" d="M5.7,17.1l27-9.5c0.7-0.3,1.5,0.1,1.8,0.9l5.4,15.4c0.3,0.7-0.1,1.5-0.9,1.8l-27,9.5c-0.7,0.3-1.5-0.1-1.8-0.9
		L4.9,18.9C4.6,18.2,5,17.4,5.7,17.1z"/>
	<rect x="7.2" y="19.4" transform="matrix(0.9435 -0.3313 0.3313 0.9435 -6.2968 8.8966)" class="st0" width="31.4" height="7.1"/>
	<rect x="7.2" y="19.4" transform="matrix(0.9435 -0.3313 0.3313 0.9435 -6.2968 8.8966)" class="st2" width="31.4" height="7.1"/>
	<rect x="26.9" y="12.2" transform="matrix(0.9435 -0.3313 0.3313 0.9435 -2.4936 10.7037)" class="st0" width="6.5" height="1"/>
	<rect x="26.9" y="12.2" transform="matrix(0.9435 -0.3313 0.3313 0.9435 -2.4936 10.7037)" class="st3" width="6.5" height="1"/>
	<rect x="32.2" y="23.6" transform="matrix(0.9435 -0.3313 0.3313 0.9435 -5.9589 12.8733)" class="st0" width="5.2" height="0.5"/>
	<rect x="32.2" y="23.6" transform="matrix(0.9435 -0.3313 0.3313 0.9435 -5.9589 12.8733)" class="st3" width="5.2" height="0.5"/>
	<rect x="31" y="24.9" transform="matrix(0.9435 -0.3313 0.3313 0.9435 -6.3788 12.8171)" class="st0" width="6.7" height="0.5"/>
	<rect x="31" y="24.9" transform="matrix(0.9435 -0.3313 0.3313 0.9435 -6.3788 12.8171)" class="st3" width="6.7" height="0.5"/>
	<rect x="11.8" y="31.6" transform="matrix(0.9435 -0.3313 0.3313 0.9435 -9.8848 6.288)" class="st0" width="3.4" height="1.1"/>
	<rect x="11.8" y="31.6" transform="matrix(0.9435 -0.3313 0.3313 0.9435 -9.8848 6.288)" class="st3" width="3.4" height="1.1"/>
	<path class="st0" d="M31.8,21.9l3.7-1.3c0.4-0.1,0.6-0.6,0.5-1l0,0c-0.1-0.4-0.6-0.6-1-0.5l-3.7,1.3c-0.4,0.1-0.6,0.6-0.5,1l0,0
		C31,21.8,31.4,22,31.8,21.9z"/>
	<path class="st0" d="M25.5,24.1l3.7-1.3c0.4-0.1,0.6-0.6,0.5-1l0,0c-0.1-0.4-0.6-0.6-1-0.5L25,22.6c-0.4,0.1-0.6,0.6-0.5,1l0,0
		C24.6,24,25.1,24.2,25.5,24.1z"/>
	<path class="st0" d="M19.2,26.3l3.7-1.3c0.4-0.1,0.6-0.6,0.5-1l0,0c-0.1-0.4-0.6-0.6-1-0.5l-3.7,1.3c-0.4,0.1-0.6,0.6-0.5,1l0,0
		C18.3,26.2,18.8,26.4,19.2,26.3z"/>
	<path class="st0" d="M12.8,28.5l3.7-1.3c0.4-0.1,0.6-0.6,0.5-1l0,0c-0.1-0.4-0.6-0.6-1-0.5l-3.7,1.3c-0.4,0.1-0.6,0.6-0.5,1l0,0
		C12,28.5,12.4,28.7,12.8,28.5z"/>
	<g class="st5">
		<path class="st6" d="M31.8,21.9l3.7-1.3c0.4-0.1,0.6-0.6,0.5-1l0,0c-0.1-0.4-0.6-0.6-1-0.5l-3.7,1.3c-0.4,0.1-0.6,0.6-0.5,1l0,0
			C31,21.8,31.4,22,31.8,21.9z"/>
		<path class="st6" d="M25.5,24.1l3.7-1.3c0.4-0.1,0.6-0.6,0.5-1l0,0c-0.1-0.4-0.6-0.6-1-0.5L25,22.6c-0.4,0.1-0.6,0.6-0.5,1l0,0
			C24.6,24,25.1,24.2,25.5,24.1z"/>
		<path class="st6" d="M19.2,26.3l3.7-1.3c0.4-0.1,0.6-0.6,0.5-1l0,0c-0.1-0.4-0.6-0.6-1-0.5l-3.7,1.3c-0.4,0.1-0.6,0.6-0.5,1l0,0
			C18.3,26.2,18.8,26.4,19.2,26.3z"/>
		<path class="st6" d="M12.8,28.5l3.7-1.3c0.4-0.1,0.6-0.6,0.5-1l0,0c-0.1-0.4-0.6-0.6-1-0.5l-3.7,1.3c-0.4,0.1-0.6,0.6-0.5,1l0,0
			C12,28.5,12.4,28.7,12.8,28.5z"/>
	</g>
	<path class="st0" d="M30.5,15.9l3.3-1.2c0.3-0.1,0.6,0,0.7,0.3l0.7,2c0.1,0.3,0,0.6-0.3,0.7l-3.3,1.2c-0.3,0.1-0.6,0-0.7-0.3
		l-0.7-2C30,16.3,30.2,16,30.5,15.9z"/>
	<path class="st4" d="M30.5,15.9l3.3-1.2c0.3-0.1,0.6,0,0.7,0.3l0.7,2c0.1,0.3,0,0.6-0.3,0.7l-3.3,1.2c-0.3,0.1-0.6,0-0.7-0.3
		l-0.7-2C30,16.3,30.2,16,30.5,15.9z"/>
	<path class="st0" d="M13.9,18.4c-0.3-1-1.4-1.5-2.4-1.2c0,0,0,0,0,0l0,0l-2.7,1l0,0l-0.1,0l0,0l0,0c-0.9,0.4-1.3,1.5-0.9,2.4
		c0.4,0.9,1.4,1.3,2.3,1l2.5-0.8c0.1,0,0.1,0,0.2-0.1c0.1,0,0.1,0,0.2-0.1l0,0C13.8,20.3,14.2,19.3,13.9,18.4z"/>
	<path class="st3" d="M13.9,18.4c-0.3-1-1.4-1.5-2.4-1.2c0,0,0,0,0,0l0,0l-2.7,1l0,0l-0.1,0l0,0l0,0c-0.9,0.4-1.3,1.5-0.9,2.4
		c0.4,0.9,1.4,1.3,2.3,1l2.5-0.8c0.1,0,0.1,0,0.2-0.1c0.1,0,0.1,0,0.2-0.1l0,0C13.8,20.3,14.2,19.3,13.9,18.4z"/>
</g>
</svg>
