<?xml version="1.0" encoding="utf-8"?>
<!-- Generator: Adobe Illustrator 27.9.0, SVG Export Plug-In . SVG Version: 6.00 Build 0)  -->
<svg version="1.1" id="圖層_1" xmlns="http://www.w3.org/2000/svg" xmlns:xlink="http://www.w3.org/1999/xlink" x="0px" y="0px"
	 viewBox="0 0 500 500" style="enable-background:new 0 0 500 500;" xml:space="preserve">
<style type="text/css">
	.st0{opacity:0.3;}
	.st1{fill:#325EB7;}
	.st2{fill:#FDABA2;}
	.st3{fill:#F6948C;}
	.st4{fill:#F79D7A;}
	.st5{fill:#FFD0D0;}
	.st6{fill:#EE8C6A;}
	.st7{fill:#008BC8;}
	.st8{fill:#3ABFED;}
	.st9{fill:#B4B4B5;}
	.st10{fill:#E50012;}
	.st11{fill:#EC6C00;}
	.st12{fill:#F9BE00;}
	.st13{fill:#00A85F;}
	.st14{fill:#905CA2;}
</style>
<g>
	<g class="st0">
		<path id="XMLID_00000013183795484966919350000015823401676385407892_" class="st1" d="M310.3,252.5
			c-18.7-5.3-57.6-145.6-4.2-174.1c0,0,9.4-6.3,3.6-17.7c-5.8-11.4-93.7,3.4-92.6,118.9c0,0-14.5-4.3-34.2-10.1
			c-33.2-9.8-81-23.8-98-28.7c-0.8-0.2-1.6-0.4-2.4-0.6c-25.3-5-35.4,30.7-21.7,41.9c0,0-29.3,9.9-14.6,45.5c0,0-22.5,15.8-6.7,49.2
			c0,0-18.8,18.8-4.2,38.7c14.5,19.8,161.9,51.3,216.2,60.6c54.3,9.3,68.8,17.1,68.8,17.1L363,263.4
			C363,263.4,329,257.8,310.3,252.5z M170.7,239.1c-3.8,11.9-16.4,18.7-28.4,15.2l-29.1-8.4l26.4,7.9c12.4,3.7,19.3,16.8,15.4,29.2
			c-3.8,11.9-16.7,21.3-28.7,17.8l-3.8-1.1c9.1,4.8,13.7,14.6,10.5,23.8c-3.7,10.5-16.4,18.6-28.5,15.4l-47.1-12.5
			c-8.5-3.7-14.4-7.3-16.8-10.5c-13.4-17.9,0.6-34.7,3.9-38.3l0,0c0.2-0.2,0.3-0.4,0.3-0.4c-15.8-33.3,6.7-49.2,6.7-49.2
			c0,0,0-0.1,0-0.1c-14.5-32.1,9.4-43.6,14.6-45.4l89.3,27.4C167.7,213.6,174.6,226.8,170.7,239.1z"/>
		<path id="XMLID_00000029756625303357442920000000169045265532323252_" class="st1" d="M185.3,193.9L185.3,193.9
			c3.7-11.5,1.8-22.1-9.1-26.6c-32.3-9.5-73.2-22-88.6-26.4c-27-7.8-38.2,29.7-24.1,41.4l91.8,28.1
			C167.3,213.8,181.5,205.9,185.3,193.9z"/>
		<path id="XMLID_00000089538921458220262780000000965519602981782698_" class="st1" d="M163.9,213c-1.8-1.2-3.9-2.2-6.1-2.9
			l-89.3-27.4c-5.2,1.8-29.1,13.3-14.6,45.4c0,0,0,0,0,0.1c0,0-22.5,15.9-6.7,49.2c0,0-0.1,0.1-0.3,0.4l0,0
			c-3.3,3.6-17.3,20.4-3.9,38.3c2.4,3.2,8.3,6.8,16.8,10.5l47.1,12.5c12.1,3.2,24.8-4.9,28.5-15.4c3.2-9.2-1.4-19-10.5-23.8l3.8,1.1
			c12,3.5,24.9-5.9,28.7-17.8c3.5-11-1.7-22.7-11.7-27.7l1.7,0.5c12,3.5,24.6-3.3,28.4-15.2C179.4,229.7,174.1,217.9,163.9,213z
			 M53.9,228.2C53.9,228.2,53.9,228.2,53.9,228.2l2.3,0.7l0,0L53.9,228.2C53.9,228.2,53.9,228.2,53.9,228.2z"/>
		<path id="XMLID_00000072994536161930239960000010049110781428090279_" class="st1" d="M51.5,228C51.5,228,51.5,228,51.5,228
			l61.7,17.9L51.5,228C51.5,228,51.5,228,51.5,228z"/>
		<path id="XMLID_00000081640816160437076130000000708154626836266405_" class="st1" d="M39.7,276.7L39.7,276.7c0,0-0.1,0.1-0.3,0.4
			l32.6,9L39.7,276.7z"/>
		<path id="XMLID_00000174595555956739441940000003656819837371356335_" class="st1" d="M182.8,193.7L182.8,193.7
			c3.7-11.5,1.8-22.5-9.1-27c-32.3-9.5-73.2-21.5-88.7-26c-27-7.8-38.2,29.7-24.1,41.4l91.8,28.1C164.7,213.6,179,205.6,182.8,193.7
			z"/>
		<path id="XMLID_00000047741491258562825140000003384795828400425647_" class="st1" d="M161.4,212.8c-1.8-1.2-3.9-2.2-6.1-2.9
			L66,182.5c-5.2,1.8-29.1,13.3-14.6,45.4c0,0,0,0,0,0.1c0,0-22.5,15.9-6.7,49.2c0,0-0.1,0.1-0.3,0.4l0,0
			c-3.3,3.6-17.3,20.4-3.9,38.3c2.4,3.2,8.3,6.8,16.8,10.5l47.1,12.5c12.1,3.2,24.8-4.9,28.5-15.4c3.2-9.2-1.4-19-10.5-23.8l3.8,1.1
			c12,3.5,24.9-5.9,28.7-17.8c3.5-11-1.7-22.7-11.7-27.7l1.7,0.5c12,3.5,24.6-3.3,28.4-15.2C176.9,229.4,171.6,217.7,161.4,212.8z
			 M51.5,228C51.5,228,51.5,228,51.5,228l2.3,0.7l0,0L51.5,228C51.5,228,51.5,228,51.5,228z"/>
		<path id="XMLID_00000012472700490374688620000012947055412440558234_" class="st1" d="M112.1,297.1c1.9,0.5,3.6,1.2,5.2,2.1
			l3.8,1.1c12,3.5,24.9-5.9,28.7-17.8c3.9-12.3-3-25.4-15.4-29.2l-26.4-7.9l-61.6-17.8l0,0c0,0-22.5,15.8-6.7,49.2l32.2,9.3
			L112.1,297.1z"/>
		<path id="XMLID_00000088825620379656452550000014603957343584210617_" class="st1" d="M46.3,227.5l61.6,17.8L46.3,227.5
			C46.5,227.8,46.2,227.2,46.3,227.5z"/>
		<path id="XMLID_00000006691762544490822380000003017361649709373872_" class="st1" d="M127.8,323c3.2-9.2-1.4-19-10.5-23.8
			L71.9,286l-32.2-9.3c-2.5,2.7-18.2,20.1-4.2,38.7c2.4,3.2,8.3,6.8,16.8,10.5l47.1,12.5C111.4,341.6,124.1,333.4,127.8,323z"/>
		<path id="XMLID_00000144305138231642313420000016615985122275004554_" class="st1" d="M155.7,186.7c1.9-15.5,14.8-10.2,19.9-7.4
			c1.3,0.7,1.9,2.1,1.7,3.5c-0.6,3.2-1.9,9.5-4.6,15.5c-0.5,1.1-1.5,1.8-2.7,1.9C165.4,200.7,154.1,200.4,155.7,186.7z"/>
		<path id="XMLID_00000085234641503769999560000005139283524623422110_" class="st1" d="M141.3,231c2.1-17.6,16.8-11.5,22.5-8.4
			c1.4,0.8,2.2,2.4,1.9,4c-0.7,3.7-2.2,10.7-5.2,17.6c-0.5,1.2-1.7,2-3,2.2C152.2,246.9,139.4,246.6,141.3,231z"/>
		<path id="XMLID_00000056386913123122768990000004578174146232604316_" class="st1" d="M123.4,276.4c1.9-15.8,15-10.3,20.2-7.5
			c1.3,0.7,2,2.1,1.7,3.5c-0.6,3.3-2,9.6-4.7,15.8c-0.5,1.1-1.5,1.8-2.7,1.9C133.2,290.7,121.7,290.4,123.4,276.4z"/>
		<path id="XMLID_00000089558725615778119990000018306360503751754895_" class="st1" d="M105.1,317.3c1.7-14,13.3-9.2,17.9-6.7
			c1.1,0.6,1.7,1.9,1.5,3.1c-0.5,2.9-1.7,8.5-4.2,14c-0.4,1-1.4,1.6-2.4,1.7C113.7,329.9,103.6,329.6,105.1,317.3z"/>
		<path id="XMLID_00000027570473976532972960000010529525946227832746_" class="st1" d="M251.9,309.8c-0.1,0-0.3-0.1-0.4-0.1
			c-65.5-34.3-43.2-111.6-43-112.4c0.2-0.6,0.8-0.9,1.3-0.7c0.6,0.2,0.9,0.8,0.7,1.3c-0.2,0.8-22,76.4,41.9,109.9
			c0.5,0.3,0.7,0.9,0.5,1.5C252.8,309.7,252.4,309.9,251.9,309.8z"/>
		<path id="XMLID_00000146460768116910542360000008864995265390726585_" class="st1" d="M139.1,205.2c0,0-20.1-5.9-40.1-12.1
			c-10-3.1-20-6.3-27.4-8.8c-1.8-0.6-3.4-1.2-4.9-1.7c-4.6-1.6-7.4-2.7-7.4-2.7c0,0,0,0,0,0c-0.1,0-0.3-0.1-0.4-0.1
			c0.6,0.8,1.3,1.5,2,2.1c0,0-0.6,0.2-1.6,0.7c0.7,0.3,2,0.7,3.5,1.2c2.1,0.7,4.8,1.6,8.1,2.7c7.5,2.4,17.5,5.5,27.6,8.4
			c20.1,6,40.3,11.6,40.3,11.6c0.4,0.1,0.8-0.1,0.9-0.5C139.7,205.7,139.5,205.3,139.1,205.2z"/>
		<path id="XMLID_00000021100521078958310340000016907516572126312598_" class="st1" d="M114.7,246.3
			C114.7,246.3,114.7,246.3,114.7,246.3l-1.6-0.5L114.7,246.3z"/>
		<path id="XMLID_00000138547170036369802610000014111142066121257095_" class="st1" d="M114.7,246.3l-1.6-0.5L114.7,246.3
			c-0.1-0.2-0.3-0.4-0.5-0.4c0,0-17.2-4.5-34.4-9.4c-11.2-3.1-22.3-6.4-28.7-8.4c-2.8-0.8-4.7-1.4-5.3-1.6c0.1,0.3,0.2,0.6,0.4,1
			c0,0-0.6,0.4-1.5,1.3c0.1,0,0.1,0.1,0.2,0.1c0,0,1.5,0.4,4.1,1.2c6.1,1.7,18.1,5.2,30.3,8.4c17.2,4.6,34.5,8.9,34.5,8.9
			c0.4,0.1,0.8-0.1,0.9-0.5C114.8,246.6,114.8,246.5,114.7,246.3z"/>
		<path id="XMLID_00000152947817857003900680000006182978306743512230_" class="st1" d="M93.1,291.4l-48.3-14.2l-5.6-1.7
			c0.2,0.4,0.3,0.8,0.5,1.2c0,0-0.4,0.4-1,1.1l4.5,1.2l49.5,13.8c0.4,0.1,0.8-0.1,0.9-0.5C93.7,291.9,93.4,291.5,93.1,291.4z"/>
		<path id="XMLID_00000093890279139631284150000007565687361610292403_" class="st1" d="M321.3,255.3c0,0,449.8,78,580.2,100.3
			L859.1,508c0,0-498.2-99.5-549.9-119.2L321.3,255.3z"/>
		<path id="XMLID_00000090983149486219240860000006177924811574704800_" class="st1" d="M368.8,245.3c0,0-36.6,76.6-40.5,167.5
			c0,0,375,101.8,441.7,96l40.4-178.5C810.4,330.3,508.7,256.7,368.8,245.3z"/>
		<path id="XMLID_00000134243006745164034870000008819513864857616777_" class="st1" d="M313.3,404.3c0.5,0.1,0.9,0.1,1.4,0.1
			c4.2-0.1,7.5-3.5,7.4-7.6c-1.1-67,28.7-135.4,29-136.1c1.7-3.8-0.1-8.2-3.9-9.9c-3.8-1.7-8.2,0.1-9.9,3.9
			c-1.3,2.9-31.4,72.1-30.3,142.4C307.1,400.7,309.8,403.7,313.3,404.3z"/>
		<path id="XMLID_00000164476262124947663540000005817454526773480383_" class="st1" d="M290.8,396.3c0.5,0.1,0.9,0.1,1.4,0.1
			c4.2-0.1,7.5-3.5,7.4-7.6c-1-64.6,27.7-130.5,28-131.2c1.7-3.8-0.1-8.2-3.9-9.9c-3.8-1.7-8.2,0.1-9.9,3.9
			c-1.2,2.8-30.3,69.6-29.2,137.4C284.7,392.6,287.4,395.6,290.8,396.3z"/>
	</g>
	<g>
		<g>
			<g id="XMLID_00000097478070645367864420000017421881515963276978_">
				<g id="XMLID_00000137096609203073031570000005034363781347028132_">
					<g id="XMLID_00000087380724598657696600000015135142184644212650_">
						<g id="XMLID_00000065794466231828260740000002570559057824520085_">
							<path id="XMLID_00000015341317616880160400000016028602418333247127_" class="st2" d="M298.2,240.4
								c-18.7-5.3-57.6-145.6-4.2-174.1c0,0,9.4-6.3,3.6-17.7s-93.7,3.4-92.6,118.9c0,0-14.5-4.3-34.2-10.1
								c-33.2-9.8-81-23.8-98-28.7c-0.8-0.2-1.6-0.4-2.4-0.6c-25.3-5-35.4,30.7-21.7,41.9c0,0-29.3,9.9-14.6,45.5
								c0,0-22.5,15.8-6.7,49.2c0,0-18.8,18.8-4.2,38.7c14.5,19.8,161.9,51.3,216.2,60.6c54.3,9.3,68.8,17.1,68.8,17.1l42.6-129.6
								C350.9,251.3,317,245.7,298.2,240.4z M158.6,227c-3.8,11.9-16.4,18.7-28.4,15.2l-29.1-8.4l26.4,7.9
								c12.4,3.7,19.3,16.8,15.4,29.2c-3.8,11.9-16.7,21.3-28.7,17.8l-3.8-1.1c9.1,4.8,13.7,14.6,10.5,23.8
								c-3.7,10.5-16.4,18.6-28.5,15.4l-47.1-12.5c-8.5-3.7-14.4-7.3-16.8-10.5c-13.4-17.9,0.6-34.7,3.9-38.3l0,0
								c0.2-0.2,0.3-0.4,0.3-0.4c-15.8-33.3,6.7-49.2,6.7-49.2c0,0,0-0.1,0-0.1c-14.5-32.1,9.4-43.6,14.6-45.4l89.3,27.4
								C155.6,201.6,162.6,214.7,158.6,227z"/>
							<path id="XMLID_00000108272998554521325260000002114675207375786126_" class="st3" d="M173.3,181.9L173.3,181.9
								c3.7-11.5,1.8-22.1-9.1-26.6c-32.3-9.5-73.2-22-88.6-26.4c-27-7.8-38.2,29.7-24.1,41.4l91.8,28.1
								C155.2,201.8,169.5,193.8,173.3,181.9z"/>
							<path id="XMLID_00000141417074296515345930000010998706121794128042_" class="st3" d="M151.8,200.9c-1.8-1.2-3.9-2.2-6.1-2.9
								l-89.3-27.4c-5.2,1.8-29.1,13.3-14.6,45.4c0,0,0,0,0,0.1c0,0-22.5,15.9-6.7,49.2c0,0-0.1,0.1-0.3,0.4l0,0
								c-3.3,3.6-17.3,20.4-3.9,38.3c2.4,3.2,8.3,6.8,16.8,10.5L94.8,327c12.1,3.2,24.8-4.9,28.5-15.4c3.2-9.2-1.4-19-10.5-23.8
								l3.8,1.1c12,3.5,24.9-5.9,28.7-17.8c3.5-11-1.7-22.7-11.7-27.7l1.7,0.5c12,3.5,24.6-3.3,28.4-15.2
								C167.3,217.6,162,205.8,151.8,200.9z M41.9,216.1C41.9,216.1,41.9,216.1,41.9,216.1l2.3,0.7l0,0L41.9,216.1
								C41.9,216.1,41.9,216.1,41.9,216.1z"/>
							<path id="XMLID_00000083808013647666883810000012797416528063132315_" class="st4" d="M39.4,215.9
								C39.4,215.9,39.4,215.9,39.4,215.9l61.7,17.9L39.4,215.9C39.4,215.9,39.4,215.9,39.4,215.9z"/>
							<path id="XMLID_00000077288771373765019950000001943480684982394552_" class="st4" d="M27.6,264.7L27.6,264.7
								c0,0-0.1,0.1-0.3,0.4l32.6,9L27.6,264.7z"/>
							<path id="XMLID_00000060023007364597339690000014393792131073883319_" class="st2" d="M170.7,181.6L170.7,181.6
								c3.7-11.5,1.8-22.5-9.1-27c-32.3-9.5-73.2-21.5-88.7-26c-27-7.8-38.2,29.7-24.1,41.4l91.8,28.1
								C152.7,201.5,166.9,193.6,170.7,181.6z"/>
							<path id="XMLID_00000021805884677294517890000011818904616382522269_" class="st2" d="M149.4,200.7c-1.8-1.2-3.9-2.2-6.1-2.9
								L54,170.4c-5.2,1.8-29.1,13.3-14.6,45.4c0,0,0,0,0,0.1c0,0-22.5,15.9-6.7,49.2c0,0-0.1,0.1-0.3,0.4l0,0
								c-3.3,3.6-17.3,20.4-3.9,38.3c2.4,3.2,8.3,6.8,16.8,10.5l47.1,12.5c12.1,3.2,24.8-4.9,28.5-15.4c3.2-9.2-1.4-19-10.5-23.8
								l3.8,1.1c12,3.5,24.9-5.9,28.7-17.8c3.5-11-1.7-22.7-11.7-27.7l1.7,0.5c12,3.5,24.6-3.3,28.4-15.2
								C164.8,217.4,159.5,205.6,149.4,200.7z M39.4,215.9C39.4,215.9,39.4,215.9,39.4,215.9l2.3,0.7l0,0L39.4,215.9
								C39.4,215.9,39.4,215.9,39.4,215.9z"/>
							<path id="XMLID_00000120531297851749302010000010191742718158421172_" class="st2" d="M100,285c1.9,0.5,3.6,1.2,5.2,2.1
								l3.8,1.1c12,3.5,24.9-5.9,28.7-17.8c3.9-12.3-3-25.4-15.4-29.2l-26.4-7.9l-61.6-17.8l0,0c0,0-22.5,15.8-6.7,49.2l32.2,9.3
								L100,285z"/>
							<path id="XMLID_00000043458913025002403850000007469513220027532441_" class="st4" d="M34.3,215.4l61.6,17.8L34.3,215.4
								C34.4,215.7,34.2,215.2,34.3,215.4z"/>
							<path id="XMLID_00000031923043882328931820000001743539928747035300_" class="st2" d="M115.7,310.9c3.2-9.2-1.4-19-10.5-23.8
								L59.8,274l-32.2-9.3c-2.5,2.7-18.2,20.1-4.2,38.7c2.4,3.2,8.3,6.8,16.8,10.5l47.1,12.5C99.3,329.5,112,321.4,115.7,310.9z"/>
							<path id="XMLID_00000137106139994990104170000005259855553819820940_" class="st5" d="M143.7,174.7
								c1.9-15.5,14.8-10.2,19.9-7.4c1.3,0.7,1.9,2.1,1.7,3.5c-0.6,3.2-1.9,9.5-4.6,15.5c-0.5,1.1-1.5,1.8-2.7,1.9
								C153.3,188.6,142,188.4,143.7,174.7z"/>
							<path id="XMLID_00000031913925241422428400000014114106896712795297_" class="st5" d="M129.2,219
								c2.1-17.6,16.8-11.5,22.5-8.4c1.4,0.8,2.2,2.4,1.9,4c-0.7,3.7-2.2,10.7-5.2,17.6c-0.5,1.2-1.7,2-3,2.2
								C140.1,234.8,127.3,234.5,129.2,219z"/>
							<path id="XMLID_00000119820364273942781240000011566917460449155219_" class="st5" d="M111.3,264.4
								c1.9-15.8,15-10.3,20.2-7.5c1.3,0.7,2,2.1,1.7,3.5c-0.6,3.3-2,9.6-4.7,15.8c-0.5,1.1-1.5,1.8-2.7,1.9
								C121.1,278.6,109.6,278.3,111.3,264.4z"/>
							<path id="XMLID_00000085963605670507537490000001649052936068442510_" class="st5" d="M93,305.2c1.7-14,13.3-9.2,17.9-6.7
								c1.1,0.6,1.7,1.9,1.5,3.1c-0.5,2.9-1.7,8.5-4.2,14c-0.4,1-1.4,1.6-2.4,1.7C101.7,317.8,91.5,317.6,93,305.2z"/>
							<g id="XMLID_00000098204231155201848660000000047163922368801928_">
								<path id="XMLID_00000171691006799066290550000018339790910091808691_" class="st3" d="M239.9,297.8c-0.1,0-0.3-0.1-0.4-0.1
									c-65.5-34.3-43.2-111.6-43-112.4c0.2-0.6,0.8-0.9,1.3-0.7c0.6,0.2,0.9,0.8,0.7,1.3c-0.2,0.8-22,76.4,41.9,109.9
									c0.5,0.3,0.7,0.9,0.5,1.5C240.7,297.6,240.3,297.8,239.9,297.8z"/>
							</g>
							<g id="XMLID_00000090257618622005832330000015325021391604661435_">
								<path id="XMLID_00000028325521241474543710000004778360365452682383_" class="st3" d="M127.1,193.1c0,0-20.1-5.9-40.1-12.1
									c-10-3.1-20-6.3-27.4-8.8c-1.8-0.6-3.4-1.2-4.9-1.7c-4.6-1.6-7.4-2.7-7.4-2.7c0,0,0,0,0,0c-0.1,0-0.3-0.1-0.4-0.1
									c0.6,0.8,1.3,1.5,2,2.1c0,0-0.6,0.2-1.6,0.7c0.7,0.3,2,0.7,3.5,1.2c2.1,0.7,4.8,1.6,8.1,2.7c7.5,2.4,17.5,5.5,27.6,8.4
									c20.1,6,40.3,11.6,40.3,11.6c0.4,0.1,0.8-0.1,0.9-0.5C127.7,193.6,127.5,193.2,127.1,193.1z"/>
								<path id="XMLID_00000124855960784579398030000003429324592806407601_" class="st6" d="M102.7,234.2
									C102.7,234.2,102.7,234.2,102.7,234.2l-1.6-0.5L102.7,234.2z"/>
								<path id="XMLID_00000078043768060101791390000003972684172885430967_" class="st3" d="M102.7,234.2l-1.6-0.5L102.7,234.2
									c-0.1-0.2-0.3-0.4-0.5-0.4c0,0-17.2-4.5-34.4-9.4c-11.2-3.1-22.3-6.4-28.7-8.4c-2.8-0.8-4.7-1.4-5.3-1.6
									c0.1,0.3,0.2,0.6,0.4,1c0,0-0.6,0.4-1.5,1.3c0.1,0,0.1,0.1,0.2,0.1c0,0,1.5,0.4,4.1,1.2c6.1,1.7,18.1,5.2,30.3,8.4
									c17.2,4.6,34.5,8.9,34.5,8.9c0.4,0.1,0.8-0.1,0.9-0.5C102.8,234.6,102.8,234.4,102.7,234.2z"/>
								<path id="XMLID_00000107584468999909259750000006179918226347782057_" class="st3" d="M81,279.3l-48.3-14.2l-5.6-1.7
									c0.2,0.4,0.3,0.8,0.5,1.2c0,0-0.4,0.4-1,1.1l4.5,1.2l49.5,13.8c0.4,0.1,0.8-0.1,0.9-0.5C81.6,279.9,81.4,279.4,81,279.3z"/>
							</g>
						</g>
					</g>
					<path id="XMLID_00000021797894861065297180000000137535027028429227_" class="st2" d="M309.2,243.2c0,0,449.8,78,580.2,100.3
						L847,496c0,0-498.2-99.5-549.9-119.2L309.2,243.2z"/>
				</g>
				<path id="XMLID_00000021828101849031901640000011493810748283056522_" class="st7" d="M356.7,233.3c0,0-36.6,76.6-40.5,167.5
					c0,0,375,101.8,441.7,96l40.4-178.5C798.3,318.3,496.7,244.6,356.7,233.3z"/>
			</g>
			<g id="XMLID_00000061434466043738442130000010174774571501108110_">
				<path id="XMLID_00000026857361266789716010000016192550509085131661_" class="st7" d="M301.2,392.3c0.5,0.1,0.9,0.1,1.4,0.1
					c4.2-0.1,7.5-3.5,7.4-7.6c-1.1-67,28.7-135.4,29-136.1c1.7-3.8-0.1-8.2-3.9-9.9c-3.8-1.7-8.2,0.1-9.9,3.9
					c-1.3,2.9-31.4,72.1-30.3,142.4C295.1,388.6,297.8,391.7,301.2,392.3z"/>
			</g>
			<g id="XMLID_00000008110075327764084040000015280819752721833617_">
				<path id="XMLID_00000091708392713603486140000017767952471349824429_" class="st8" d="M278.8,384.2c0.5,0.1,0.9,0.1,1.4,0.1
					c4.2-0.1,7.5-3.5,7.4-7.6c-1-64.6,27.7-130.5,28-131.2c1.7-3.8-0.1-8.2-3.9-9.9c-3.8-1.7-8.2,0.1-9.9,3.9
					c-1.2,2.8-30.3,69.6-29.2,137.4C272.6,380.6,275.3,383.6,278.8,384.2z"/>
			</g>
		</g>
	</g>
</g>
<g>
	<path class="st9" d="M-309.9-146.1c0,0,12.7,14.8,26,21.8c13.3,6.9,35.9,12.4,35.9,12.4s-19,2.1-21.1,3c-2.1,0.9-1.2,5.7-12.4,5.7
		c-11.2,0-14.2-5.7-14.2-5.7s-0.9-3-3.6-1.8c-2.7,1.2-27.5,9.4-32,29.6c-4.5,20.2-2.7,38,16.3,50.1c19,12.1,36.4,7.3,43.8,5.4
		c16.6-4.2,24.8-9.8,32.6-20.6c8.8-12.1,13.3-20,16.4-39c3.3-20-6.8-38.9-16.1-49.2c-9.4-10.3-21.1-15.4-21.1-15.4s32-4.4,51.3,17.2
		c19.4,21.8,19,34,18.1,50.3c-0.9,16.3-11.5,37.9-11.5,37.9s-3.4,5.7,2.1,3.6c6.3-2.4,16.6-7.5,20.5-16.9
		c3.9-9.3,1.2,23.1-10.3,37.1C-201.2-5.7-210-1.1-210-1.1s-4.1,2.8,1.8,3.3c6.3,0.6,9.2,1.3,19-3.9c9.2-4.9-9.4,20.2-31.4,27.2
		c-17.9,5.7-36.8,5.7-36.8,5.7s-8.2,0.9-2.7,4.2c5.4,3.3,13.3,5.1,19,5.1c5.7,0,3.3,0,3.3,0s-9.7,14.5-39.9,11.8
		c-30.2-2.7-58-12.1-77.9-42.9c-19.9-30.8-16.6-59.2-6.7-79.7c10-20.5,30.5-35.9,36.8-39c0,0,15-8.5,22.9-9.9c4.5-0.9,6.1-1,4.1-4.1
		c-1.7-2.6-1.2,0-7.1-8.3C-311.5-140-310.2-143.3-309.9-146.1z"/>
	<path class="st10" d="M-179.6-126.8c0,0-13-32.6-58.3-60.1c0,0-26.3-15.1-40.5-19.6c-13.1-4.2-23.9-7.3-46.8-6.9
		c-22.9,0.3-42,8.8-55.2,26.3c-13.3,17.5-16.3,41.7-16.3,41.7v4.8c0,0,9.7-12.6,20.2-17.8c0,0,10.3-5.4,19.6-8.2
		c0,0,10.3-3.3,19.6-5.1c0,0,19.5-3.9,32-3.9c13.6,0,17.2,0,38,4.5c16.8,3.6,29,7.5,42,13.6c13,6,29.9,18.7,31.4,20.2
		C-192.3-135.9-179.6-126.8-179.6-126.8z"/>
	<path class="st11" d="M-162.5-6.4c0,0,22.7-26.8,25.6-79.7c0,0,1-30.3-1.7-44.9c-2.5-13.5-4.8-24.5-15.9-44.6
		c-11-20.1-27.5-32.9-49.2-36.4c-21.7-3.5-44.4,5.2-44.4,5.2l-4.3,2.3c0,0,15.7,2.7,25.2,9.5c0,0,9.6,6.5,16.4,13.5
		c0,0,7.8,7.5,13.8,14.9c0,0,12.7,15.4,18.5,26.4c6.4,12,8.1,15.2,13.9,35.7c4.7,16.5,7,29.1,7.7,43.4c0.8,14.3-2.4,35.2-3.1,37.2
		C-160.5-21.8-162.5-6.4-162.5-6.4z"/>
	<path class="st12" d="M-252.8,66.8c0,0,34.7,5.4,81.4-19.5c0,0,26.4-14.9,37.5-24.9c10.3-9.2,18.4-16.8,29.8-36.7
		c11.4-19.9,13.8-40.6,5.5-60.9c-8.3-20.4-27.6-35.3-27.6-35.3l-4.2-2.4c0,0,5.9,14.8,5.1,26.5c0,0-0.6,11.6-3,21.1
		c0,0-2.4,10.5-5.6,19.5c0,0-6.6,18.8-12.9,29.5C-153.7-4.7-155.5-1.6-170,14c-11.7,12.6-21.3,21.1-33.1,29.2
		c-11.8,8.1-31.3,16.2-33.4,16.7C-238.5,60.5-252.8,66.8-252.8,66.8z"/>
	<path class="st13" d="M-363.5,25.9c0,0,13,32.6,58.2,60.1c0,0,26.3,15.1,40.5,19.6c13.1,4.2,23.9,7.3,46.8,7
		c22.9-0.3,42-8.8,55.3-26.3c13.3-17.5,16.3-41.7,16.3-41.7v-4.8c0,0-9.7,12.6-20.2,17.8c0,0-10.3,5.4-19.6,8.2
		c0,0-10.3,3.3-19.6,5.1c0,0-19.5,3.9-32,3.9c-13.6,0-17.2,0-38-4.5c-16.8-3.7-29-7.6-42-13.6c-13-6.1-29.9-18.7-31.4-20.3
		C-350.8,34.9-363.5,25.9-363.5,25.9z"/>
	<path class="st14" d="M-295.8-166.9c0,0-34.7-5.3-81.3,19.9c0,0-26.3,15-37.4,25c-10.3,9.2-18.3,16.9-29.7,36.9
		c-11.3,19.9-13.7,40.6-5.3,61c8.4,20.3,27.7,35.1,27.7,35.1l4.2,2.5c0,0-5.9-14.7-5.1-26.5c0,0,0.5-11.6,2.9-21.1
		c0,0,2.3-10.5,5.5-19.5c0,0,6.5-18.8,12.8-29.6c6.9-11.7,8.7-14.8,23.1-30.5c11.6-12.6,21.2-21.2,32.9-29.3
		c11.8-8.1,31.3-16.3,33.3-16.9C-310.1-160.5-295.8-166.9-295.8-166.9z"/>
	<path class="st7" d="M-388.3-91c0,0-21.7,27.6-22.6,80.6c0,0,0.2,30.3,3.4,44.8c3,13.4,5.7,24.3,17.6,43.9
		c11.8,19.7,28.7,31.9,50.5,34.5c21.8,2.7,44.2-6.9,44.2-6.9l4.2-2.4c0,0-15.7-2.1-25.6-8.5c0,0-9.9-6.1-16.9-12.8
		c0,0-8-7.2-14.3-14.4c0,0-13.2-14.9-19.5-25.7c-6.8-11.7-8.7-14.9-15.2-35.2c-5.3-16.3-8.1-28.8-9.4-43.1
		c-1.3-14.3,1.1-35.3,1.7-37.3C-389.7-75.4-388.3-91-388.3-91z"/>
</g>
</svg>
