<?xml version="1.0" encoding="utf-8"?>
<!-- Generator: Adobe Illustrator 27.9.0, SVG Export Plug-In . SVG Version: 6.00 Build 0)  -->
<svg version="1.1" id="圖層_1" xmlns="http://www.w3.org/2000/svg" xmlns:xlink="http://www.w3.org/1999/xlink" x="0px" y="0px"
	 viewBox="0 0 500 500" style="enable-background:new 0 0 500 500;" xml:space="preserve">
<style type="text/css">
	.st0{fill:#2B2538;}
	.st1{opacity:0.7;fill:#A03AFF;enable-background:new    ;}
	.st2{fill:#A03AFF;}
	.st3{opacity:0.4;fill:#FFFFFF;enable-background:new    ;}
	.st4{fill:#FFFFFF;}
	.st5{opacity:0.4;fill:#2B2538;enable-background:new    ;}
	.st6{opacity:0.2;fill:#FFFFFF;enable-background:new    ;}
	.st7{fill:#FAF7F4;}
	.st8{opacity:0.3;fill:#A03AFF;enable-background:new    ;}
	.st9{opacity:0.5;}
</style>
<g>
	<g id="freepik--list-of-people--inject-314">
		<path class="st0" d="M266.9,121.5c4.4-31.4-17.5-56.9-49-56.9h229.6c31.4,0,53.4,25.5,49,56.9H266.9z"/>
		<path class="st1" d="M266.9,121.5c4.4-31.4-17.5-56.9-49-56.9h229.6c31.4,0,53.4,25.5,49,56.9H266.9z"/>
		<path class="st2" d="M217.9,64.6h229.6c-31.4,0-60.5,25.5-64.8,56.9l-35.7,266.4c-4.4,31.4-33.4,56.9-64.8,56.9H166.3
			c-31.4,0-53.4-25.5-49-56.9L153,121.5C157.4,90,186.5,64.6,217.9,64.6z"/>
		<path class="st0" d="M233.1,387.9c-4.4,31.4,17.5,56.9,49,56.9H52.5c-31.4,0-53.4-25.5-49-56.9H233.1z"/>
		<path class="st1" d="M233.1,387.9c-4.4,31.4,17.5,56.9,49,56.9H52.5c-31.4,0-53.4-25.5-49-56.9H233.1z"/>
		<path class="st3" d="M253.7,180.4h88.9c2.7-0.1,4.9-2.1,5.4-4.7l0,0c0.4-2.2-1.1-4.3-3.3-4.7c-0.3,0-0.5-0.1-0.8-0.1h-88.9
			c-2.7,0.1-4.9,2.1-5.4,4.7l0,0c-0.4,2.2,1.1,4.3,3.3,4.6C253.2,180.4,253.5,180.4,253.7,180.4z"/>
		<path class="st3" d="M251.3,197.9h65.4c2.7-0.1,4.9-2.1,5.4-4.7l0,0c0.4-2.2-1.1-4.3-3.3-4.6c-0.3,0-0.5-0.1-0.8-0.1h-65.4
			c-2.7,0.1-4.9,2-5.4,4.7l0,0c-0.4,2.2,1.1,4.3,3.3,4.6C250.8,197.9,251,198,251.3,197.9z"/>
		
			<ellipse transform="matrix(0.7312 -0.6821 0.6821 0.7312 -70.9264 182.6823)" class="st3" cx="196.4" cy="181.3" rx="30.5" ry="26.5"/>
		<path class="st4" d="M171,181.5c-0.6,4.1-0.1,8.2,1.4,12.1c3.4,8.3,11.5,13.6,20.5,13.3c9.7-0.2,18.7-5.2,24.1-13.3
			c2.5-3.6,4.1-7.7,4.7-12.1c1.9-14-7.8-25.3-21.8-25.3C185.4,156.5,173.3,167.2,171,181.5z"/>
		<path class="st5" d="M177.9,191c2.6,6.3,8.8,10.4,15.7,10.2c7.5-0.2,14.4-4,18.5-10.2c-4.8-3.4-10.5-5.3-16.4-5.2
			C189.4,185.9,183.3,187.7,177.9,191z"/>
		<path class="st5" d="M188.6,175.1c-0.7,4,1.9,7.8,6,8.6c0.5,0.1,1,0.1,1.5,0.1c4.9-0.1,9.1-3.8,9.9-8.7c0.7-4-1.9-7.8-5.9-8.5
			c-0.5-0.1-1-0.1-1.5-0.1C193.5,166.6,189.3,170.3,188.6,175.1z"/>
		<path class="st3" d="M243.1,257h30c2.7-0.1,4.9-2.1,5.4-4.7l0,0c0.4-2.2-1.1-4.3-3.3-4.6c-0.3,0-0.5-0.1-0.8-0.1h-30
			c-2.7,0.1-4.9,2.1-5.4,4.7l0,0c-0.4,2.2,1.1,4.3,3.3,4.6C242.6,257,242.8,257,243.1,257z"/>
		<path class="st3" d="M291.2,257H334c2.7-0.1,4.9-2.1,5.4-4.7l0,0c0.4-2.2-1.1-4.2-3.2-4.6c-0.3,0-0.6-0.1-0.8-0.1h-42.9
			c-2.7,0.1-4.9,2-5.4,4.7l0,0c-0.4,2.2,1.1,4.3,3.3,4.6C290.6,257,290.9,257,291.2,257z"/>
		<path class="st3" d="M240.6,274.6h73.5c2.7-0.1,4.9-2.1,5.4-4.7l0,0c0.4-2.2-1.1-4.3-3.3-4.6c-0.3,0-0.5-0.1-0.8-0.1h-73.5
			c-2.7,0.1-4.9,2.1-5.4,4.7l0,0c-0.4,2.2,1.1,4.3,3.2,4.7C240.1,274.6,240.4,274.6,240.6,274.6z"/>
		
			<ellipse transform="matrix(0.7312 -0.6821 0.6821 0.7312 -126.0489 195.9944)" class="st3" cx="185.7" cy="258" rx="30.5" ry="26.5"/>
		<path class="st4" d="M160.3,257.9c-0.6,4.1-0.1,8.2,1.4,12.1c3.3,8.3,11.5,13.6,20.4,13.3c9.7-0.2,18.7-5.2,24.1-13.3
			c2.5-3.6,4.1-7.7,4.8-12.1c1.9-14-7.8-25.3-21.8-25.3C174.7,233.1,162.6,243.7,160.3,257.9z"/>
		<path class="st5" d="M167.2,267.7c2.6,6.3,8.9,10.4,15.7,10.2c7.5-0.2,14.4-4,18.5-10.2c-4.8-3.4-10.5-5.3-16.4-5.2
			C178.8,262.5,172.6,264.3,167.2,267.7z"/>
		<path class="st5" d="M177.9,251.7c-0.7,4,1.9,7.8,6,8.6c0.5,0.1,1,0.1,1.5,0.1c5-0.1,9.1-3.8,9.9-8.7c0.7-4-1.9-7.8-5.9-8.5
			c-0.5-0.1-1-0.1-1.5-0.1C182.8,243.2,178.7,246.9,177.9,251.7z"/>
		<path class="st3" d="M232.4,333.6h52.2c2.7-0.1,4.9-2.1,5.4-4.7l0,0c0.4-2.2-1.1-4.3-3.3-4.6c-0.3,0-0.5-0.1-0.8-0.1h-52.3
			c-2.7,0.1-4.9,2.1-5.4,4.7l0,0c-0.4,2.2,1.1,4.3,3.2,4.7C231.8,333.6,232.1,333.6,232.4,333.6z"/>
		<path class="st3" d="M229.9,351.2h81.5c2.7-0.1,4.9-2.1,5.4-4.7l0,0c0.4-2.2-1.1-4.3-3.3-4.6c-0.3,0-0.5-0.1-0.8-0.1h-81.4
			c-2.7,0.1-4.9,2.1-5.4,4.7l0,0c-0.4,2.2,1.1,4.3,3.2,4.7C229.3,351.2,229.6,351.2,229.9,351.2z"/>
		<path class="st6" d="M184.1,124.9h148.7c1.9-0.1,3.5-1.5,3.8-3.4l0,0c0.3-1.6-0.8-3.1-2.4-3.4c-0.2,0-0.4,0-0.6,0H185.1
			c-1.9,0.1-3.5,1.5-3.8,3.4l0,0c-0.3,1.6,0.8,3.1,2.4,3.4C183.8,124.9,184,124.9,184.1,124.9z"/>
		
			<ellipse transform="matrix(0.7312 -0.6821 0.6821 0.7312 -181.1728 209.3009)" class="st3" cx="175" cy="334.6" rx="30.5" ry="26.5"/>
		<path class="st4" d="M149.6,334.6c-0.6,4.1-0.1,8.2,1.4,12.1c3.4,8.3,11.5,13.5,20.5,13.3c9.7-0.2,18.7-5.2,24.1-13.3
			c2.5-3.6,4.1-7.7,4.7-12.1c1.9-14-7.8-25.4-21.8-25.4C164,309.6,151.9,320.3,149.6,334.6z"/>
		<path class="st5" d="M156.6,344.3c2.6,6.3,8.9,10.4,15.7,10.2c7.5-0.2,14.4-4,18.5-10.2c-4.8-3.4-10.5-5.3-16.4-5.2
			C168.1,339.1,161.9,340.9,156.6,344.3z"/>
		<path class="st5" d="M167.2,328.4c-0.7,4,2,7.8,6,8.5c0.5,0.1,1,0.1,1.5,0.1c4.9-0.1,9.1-3.8,9.9-8.7c0.7-4-1.9-7.8-6-8.6
			c-0.5-0.1-1-0.1-1.5-0.1C172.1,319.8,168,323.5,167.2,328.4z"/>
	</g>
	<g id="freepik--Character--inject-314">
		<path class="st7" d="M98.7,188.8c2-0.2,4.1-0.2,6.2,0c5.8,8.2,11.5,32.7,1.3,40.1c-2.3-8-11-13.4-11-13.4L98.7,188.8z"/>
		<path class="st0" d="M127.4,134.3C127.4,134.3,127.4,134.3,127.4,134.3c-41.1,46.5-36.8,117.5,9.7,158.7s117.5,36.8,158.7-9.7
			c41.1-46.5,36.8-117.5-9.7-158.7C239.6,83.5,168.6,87.8,127.4,134.3z M148.9,279.6c-39.1-34.6-42.8-94.4-8.2-133.5
			c34.6-39.1,94.4-42.8,133.5-8.2c39.1,34.6,42.8,94.4,8.2,133.5S188,314.2,148.9,279.6C148.9,279.6,148.9,279.6,148.9,279.6z"/>
		<path class="st8" d="M125.1,214.1C125.1,214,125.1,214,125.1,214.1c-2.9-47.9,33.5-89,81.3-91.8c47.8-2.9,88.9,33.5,91.8,81.3
			s-33.5,88.9-81.3,91.8C169.1,298.2,128.1,261.8,125.1,214.1z"/>
		<g class="st9">
			<path class="st7" d="M155.4,142.8l128.5,113.9c10.4-15.7,15.4-34.3,14.3-53.1l-0.1-1.6L208,122.2h-1.6
				C187.6,123.4,169.7,130.6,155.4,142.8z"/>
			<path class="st7" d="M135.6,167.1l126.7,112.2c5.4-3.9,10.3-8.4,14.6-13.4L147,151C142.6,155.9,138.7,161.3,135.6,167.1z"/>
		</g>
		<path class="st0" d="M122.7,286.2L122.7,286.2c2-2.2,5.4-2.5,7.6-0.5l14.8,13.1c2.2,2,2.4,5.4,0.5,7.6l0,0c-2,2.2-5.4,2.4-7.6,0.5
			l-14.8-13.1C120.9,291.8,120.7,288.4,122.7,286.2z"/>
		<path class="st0" d="M138,290.8c3.4,2.4,4.1,7.1,1.7,10.4c-8.4,12.3-17.3,24.1-26.3,35.8c-9,11.7-18.2,23.3-27.6,34.6
			c-9.4,11.4-18.9,22.6-28.6,33.8C47,416,40.1,429.6,22.5,433.7c-1,0.2-2,0.3-3,0.2c-5-0.5-8.7-5-8.1-10c1.9-18,14.5-26.5,23.8-38
			c9.9-11,19.9-21.9,30.1-32.5c10.2-10.6,20.5-21.2,31-31.6s21.2-20.6,32.3-30.4C131.2,289,135.1,288.8,138,290.8z"/>
	</g>
</g>
</svg>
