<?xml version="1.0" encoding="utf-8"?>
<!-- Generator: Adobe Illustrator 27.9.0, SVG Export Plug-In . SVG Version: 6.00 Build 0)  -->
<svg version="1.1" id="圖層_1" xmlns="http://www.w3.org/2000/svg" xmlns:xlink="http://www.w3.org/1999/xlink" x="0px" y="0px"
	 viewBox="0 0 500 500" style="enable-background:new 0 0 500 500;" xml:space="preserve">
<style type="text/css">
	.st0{fill:#CECECE;}
	.st1{fill:#898989;}
	.st2{fill:#FFFFFF;}
</style>
<path class="st0" d="M258.1,29.2c-126.4,0-228.9,102.5-228.9,228.9c0,49.3,15.6,95,42.2,132.4l-32.9,84.9l95.2-25.2
	c35.8,23.3,78.5,36.8,124.4,36.8c126.4,0,228.9-102.5,228.9-228.9S384.5,29.2,258.1,29.2z"/>
<path class="st1" d="M241.9,13.1c-126.4,0-228.9,102.5-228.9,228.9c0,49.3,15.6,95,42.2,132.4l-32.9,84.9l95.2-25.2
	c35.8,23.3,78.5,36.8,124.4,36.8c126.4,0,228.9-102.5,228.9-228.9S368.3,13.1,241.9,13.1z"/>
<g>
	<path class="st2" d="M163.1,369.4c0-5.6,1.2-13,3.7-22.2L202.4,235c1-5.6,1.5-9,1.5-10.2c0-4.3-2.2-6.5-6.7-6.5
		c-4.5,0-9.7,2.2-15.6,6.7c-5.9,4.5-13.6,11.8-23,22c-0.5,0.6-1.6,1.9-3.3,3.9c-1.7,2-3.3,3.5-4.8,4.4c-1.5,0.9-3,1.4-4.5,1.4
		c-4.5,0-6.7-2.5-6.7-7.4c0-8.6,5.9-18.9,17.8-30.8c11.9-11.9,26.7-22.2,44.6-30.8c17.8-8.6,35.2-13,52-13c20.8,0,31.2,8.7,31.2,26
		c0,4.9-1.7,13.4-5.2,25.5l-37.1,119.6c-1,2.5-1.5,4.2-1.5,5.1c0,3.7,2.7,5.6,8.2,5.6c6.4,0,13.7-3.2,21.9-9.7
		c8.2-6.5,16-15.3,23.4-26.4c2.5-4.3,5.4-6.5,8.9-6.5c4.5,0,6.7,2.6,6.7,7.9c0,10.8-5.7,22.3-17.1,34.5
		c-11.4,12.2-25.6,22.6-42.7,31.1c-17.1,8.5-34,12.7-50.9,12.7C175.2,400,163.1,389.8,163.1,369.4z M224,157.8
		c-1-0.8-1.2-2.2-0.7-4.4l10.4-36.6c3-9.9,9.9-17.8,20.8-23.9c10.9-6,26.5-9,46.8-9h5.9c5.4,0,7.9,1.7,7.4,5.1l-10.4,36.6
		c-5.9,22.2-28.7,33.4-68.3,33.4h-5.2C227.2,159,225,158.6,224,157.8z"/>
</g>
</svg>
