<?xml version="1.0" encoding="utf-8"?>
<!-- Generator: Adobe Illustrator 27.9.0, SVG Export Plug-In . SVG Version: 6.00 Build 0)  -->
<svg version="1.1" id="圖層_1" xmlns="http://www.w3.org/2000/svg" xmlns:xlink="http://www.w3.org/1999/xlink" x="0px" y="0px"
	 viewBox="0 0 40 40" style="enable-background:new 0 0 40 40;" xml:space="preserve">
<style type="text/css">
	.st0{fill:#DBAC45;}
	.st1{opacity:0.3;enable-background:new    ;}
	.st2{opacity:0.1;fill:#FFFFFF;enable-background:new    ;}
	.st3{opacity:0.2;enable-background:new    ;}
	.st4{fill:#383024;}
	.st5{opacity:0.2;fill:#FFFFFF;enable-background:new    ;}
	.st6{fill:#FFC538;}
</style>
<g id="freepik--travel-bag--inject-11">
	<path class="st0" d="M14.9,22.3c0,0,0.9-1.4,2.5-1.5s3,2,3,2h-0.5c0,0-1.3-1.4-2.2-1.4c-0.9,0-1.8,1.2-1.8,1.2L14.9,22.3z"/>
	<path class="st0" d="M1.2,33.1c0.6-0.9,6.8-0.3,8.3-0.9l0.8,1.3c0,0-1.1,0.6-2.9,0.4s-4.5-0.3-5.2,0.4L1.2,33.1z"/>
	<path class="st1" d="M1.2,33.1c0.6-0.9,6.8-0.3,8.3-0.9l0.8,1.3c0,0-1.1,0.6-2.9,0.4s-4.5-0.3-5.2,0.4L1.2,33.1z"/>
	<path class="st0" d="M27.6,30.2c-0.1,0.2-0.1,0.4-0.2,0.7c-0.5,1.7-1.3,3.2-1.9,3.4H9.3c-0.5,0-0.9-0.2-1.2-0.6l0,0
		C8.1,33.6,8,33.5,8,33.4c-1.1-2.3-2.3-7-0.7-9.2c0.2-0.2,0.4-0.4,0.6-0.6l0,0c0.3-0.3,0.7-0.5,1.1-0.7h0c1.1-0.5,2.5-0.7,3.8-0.8
		c0.4,0,0.8,0,1.2-0.1c1,0,1.9,0,2.7,0c2.6,0.1,4.7,0.8,6.1,0.7c0.5-0.1,1,0,1.5,0.1c0.1,0,0.3,0.1,0.4,0.1c0.6,0.3,1.2,0.6,1.8,1.1
		C28.1,25.4,28.2,28,27.6,30.2z"/>
	<path class="st2" d="M27.6,30.2c-0.1,0.2-0.1,0.4-0.2,0.7c-0.5,1.7-1.3,3.2-1.9,3.4H9.3c-0.5,0-0.9-0.2-1.2-0.6l0,0
		C8.1,33.6,8,33.5,8,33.4c-1.1-2.3-2.3-7-0.7-9.2c0.2-0.2,0.4-0.4,0.6-0.6l0,0c0.3-0.3,0.7-0.5,1.1-0.7h0c1.1-0.5,2.5-0.7,3.8-0.8
		c0.4,0,0.8,0,1.2-0.1c1,0,1.9,0,2.7,0c2.6,0.1,4.7,0.8,6.1,0.7c0.5-0.1,1,0,1.5,0.1c0.1,0,0.3,0.1,0.4,0.1c0.6,0.3,1.2,0.6,1.8,1.1
		C28.1,25.4,28.2,28,27.6,30.2z"/>
	<path class="st3" d="M25.1,30.1c-1.2,0-3.5,0.6-6.9-0.2c-1.6-0.4-3.3-0.4-4.9,0c0-0.5-0.1-1.1-0.1-1.7c-0.3-4.2-2.7-5.9-4.1-5.2h0
		c-0.4,0.2-0.8,0.4-1.1,0.7l0,0c-0.2,0.2-0.4,0.4-0.6,0.6c-1.6,2.1-0.5,6.8,0.7,9.2c0,0.1,0.1,0.2,0.2,0.3l0,0
		c0.3,0.3,0.7,0.5,1.1,0.5h2.9c1.2,0,1.3-1.1,1.2-3.4c0.2-0.1,0.5-0.3,0.7-0.4c0.7-0.5,3.5-0.2,4.8,0.2s4.4,0.7,6,0.4
		c0.9-0.1,1.8-0.1,2.7,0c0.1-0.2,0.1-0.4,0.2-0.7C27.1,30.2,26,30.1,25.1,30.1z"/>
	<path class="st3" d="M14.6,24.2c0.7,2.6,1.2,3.5,1.4,3.8c0.2,0.3,5.3,0.9,6.3,0.9c1.1,0,2.2-0.1,3.3-0.3c0.7-0.2,0.9-3.5-0.8-5.5
		c-0.1-0.1-0.3-0.1-0.4-0.1c0.9,2,0.9,4.5,0.8,4.9c-0.2,0.5-1.7,0.4-2.4,0.4s-5.1-0.3-5.6-0.5c-0.4-0.2-0.8-0.5-1.1-0.9
		c-0.4-0.5-0.4-2-1-3.4c-0.3-0.5-0.6-1-1.1-1.4c-0.4,0-0.8,0-1.2,0.1C13.7,22.5,14.3,23.3,14.6,24.2z"/>
	<path class="st0" d="M9.4,26.6L8,26.9c0,0-1,2.9-0.4,4.1c0.6,1.2-4.1,2.9-6.4,2l0.9,1.2c0,0,5.6-0.4,6.6-2.5c1.1-2.1-0.5-2.4-0.6-3
		C8.1,28.1,9.4,26.6,9.4,26.6z"/>
	<path class="st2" d="M9.4,26.6L8,26.9c0,0-1,2.9-0.4,4.1c0.6,1.2-4.1,2.9-6.4,2l0.9,1.2c0,0,5.6-0.4,6.6-2.5c1.1-2.1-0.5-2.4-0.6-3
		C8.1,28.1,9.4,26.6,9.4,26.6z"/>
</g>
<g id="freepik--Suitcase--inject-11">
	<path class="st4" d="M26.4,19.1l-3.7,1.4L16.9,4.9l3.7-1.4L26.4,19.1z M23.2,19.5l2.3-0.9L20.1,4.4l-2.3,0.9L23.2,19.5z"/>
	<path class="st4" d="M30.9,33.3l0.5-0.2c0.5-0.2,1.1,0,1.4,0.5c0.2,0.5,0,1.1-0.5,1.4c-0.1,0-0.1,0.1-0.2,0.1l-0.5,0.2
		c-0.5,0.2-1.1,0-1.4-0.5s0-1.1,0.5-1.4C30.8,33.4,30.8,33.4,30.9,33.3L30.9,33.3z"/>
	<path class="st2" d="M30.3,34.6c0.2,0.5,0.8,0.8,1.3,0.6c0.5-0.2,0.8-0.8,0.6-1.3c-0.2-0.5-0.8-0.8-1.3-0.6c0,0,0,0,0,0
		C30.3,33.5,30.1,34.1,30.3,34.6C30.3,34.6,30.3,34.6,30.3,34.6z"/>
	<path class="st4" d="M28.3,34.3l0.5-0.2c0.5-0.2,1.1,0,1.4,0.5c0.2,0.5,0,1.1-0.5,1.4c-0.1,0-0.1,0.1-0.2,0.1L29,36.2
		c-0.5,0.2-1.1,0-1.4-0.5c-0.2-0.5,0-1.1,0.5-1.4C28.1,34.4,28.2,34.3,28.3,34.3z"/>
	<path class="st5" d="M27.6,35.6c0.2,0.5,0.8,0.8,1.3,0.6c0.5-0.2,0.8-0.8,0.6-1.3s-0.8-0.8-1.3-0.6c0,0,0,0,0,0
		C27.7,34.5,27.4,35.1,27.6,35.6z"/>
	<path class="st4" d="M31.7,33.4L28,34.8c-0.4,0.1-0.8,0-0.9-0.4l-8.4-22.6c-0.1-0.4,0-0.8,0.4-0.9l3.7-1.4c0.4-0.1,0.8,0,0.9,0.4
		l8.4,22.6C32.2,32.9,32.1,33.3,31.7,33.4z"/>
	<path class="st5" d="M31.7,33.4l-1.9,0.7c-0.4,0.1-0.8,0-0.9-0.4l-8.4-22.6c-0.1-0.4,0-0.8,0.4-0.9l1.9-0.7c0.4-0.1,0.8,0,0.9,0.4
		l8.4,22.6C32.2,32.9,32.1,33.3,31.7,33.4z"/>
	<path class="st4" d="M20.4,4.1l-3.1,1.2c-0.3,0.1-0.6,0-0.7-0.3l-0.1-0.3c-0.1-0.3,0-0.6,0.3-0.7L20,2.9c0.3-0.1,0.6,0,0.7,0.3
		l0.1,0.3C20.8,3.7,20.7,4,20.4,4.1z"/>
	<path class="st5" d="M20.4,4.1l-3.1,1.2c-0.3,0.1-0.6,0-0.7-0.3l-0.1-0.3c-0.1-0.3,0-0.6,0.3-0.7L20,2.9c0.3-0.1,0.6,0,0.7,0.3
		l0.1,0.3C20.8,3.7,20.7,4,20.4,4.1z"/>
	<path class="st3" d="M17.8,5.5l-0.3,0.1c-0.3,0.1-0.6,0-0.7-0.3L16.7,5c-0.1-0.3,0-0.6,0.3-0.7l0.3-0.1c0.3-0.1,0.6,0,0.7,0.3
		l0.1,0.3C18.2,5.1,18,5.4,17.8,5.5z"/>
	<path class="st6" d="M31.1,8.4l7.6,20.5c0.3,0.8-0.1,1.6-0.9,1.9l-7.5,2.8c-0.5,0.2-1.1-0.1-1.3-0.6l-7.9-21.3
		c-0.2-0.5,0.1-1.1,0.6-1.3l7.5-2.8C30,7.3,30.8,7.7,31.1,8.4C31.1,8.4,31.1,8.4,31.1,8.4z"/>
	<path class="st5" d="M31.1,8.4l7.6,20.5c0.3,0.8-0.1,1.6-0.9,1.9l-7.5,2.8c-0.5,0.2-1.1-0.1-1.3-0.6l-7.9-21.3
		c-0.2-0.5,0.1-1.1,0.6-1.3l7.5-2.8C30,7.3,30.8,7.7,31.1,8.4C31.1,8.4,31.1,8.4,31.1,8.4z"/>
	<path class="st3" d="M25.4,9L25.4,9l-0.3,0.1c-0.5,0.2-0.8,0.8-0.6,1.3l7.9,21.3c0.2,0.4,0.6,0.7,1.1,0.7l-3.1,1.2
		c-0.5,0.2-1.1-0.1-1.3-0.6l-7.9-21.3c-0.2-0.5,0.1-1.1,0.6-1.3L25.4,9z"/>
	<path class="st3" d="M25.5,9.8l0.1,0c0.1-0.1,0.3,0,0.4,0.2l7.8,20.9c0.1,0.1,0,0.3-0.2,0.4l-0.1,0c-0.1,0.1-0.3,0-0.4-0.2
		l-7.8-20.9C25.3,10,25.4,9.8,25.5,9.8z"/>
	<path class="st3" d="M27.1,9.3l0.1,0c0.1-0.1,0.3,0,0.4,0.2l7.8,20.9c0.1,0.1,0,0.3-0.2,0.4l-0.1,0c-0.1,0.1-0.3,0-0.4-0.2
		L26.9,9.7C26.8,9.5,26.9,9.4,27.1,9.3z"/>
	<path class="st3" d="M28.5,8.7l0.1,0c0.1-0.1,0.3,0,0.4,0.2l7.8,20.9c0.1,0.1,0,0.3-0.2,0.4l-0.1,0c-0.1,0.1-0.3,0-0.4-0.2
		L28.4,9.1C28.3,9,28.4,8.8,28.5,8.7z"/>
	<path class="st3" d="M30,8.2l0.1,0c0.1-0.1,0.3,0,0.4,0.2l7.8,20.9c0.1,0.1,0,0.3-0.2,0.4l-0.1,0c-0.1,0.1-0.3,0-0.4-0.2L29.9,8.5
		C29.8,8.4,29.9,8.2,30,8.2z"/>
</g>
</svg>
