<?xml version="1.0" encoding="utf-8"?>
<!-- Generator: Adobe Illustrator 27.9.0, SVG Export Plug-In . SVG Version: 6.00 Build 0)  -->
<svg version="1.1" id="圖層_1" xmlns="http://www.w3.org/2000/svg" xmlns:xlink="http://www.w3.org/1999/xlink" x="0px" y="0px"
	 viewBox="0 0 500 500" style="enable-background:new 0 0 500 500;" xml:space="preserve">
<style type="text/css">
	.st0{fill:#6CD171;}
	.st1{opacity:0.2;enable-background:new    ;}
	.st2{fill:#33D139;}
	.st3{opacity:0.8;fill:#FFFFFF;enable-background:new    ;}
	.st4{fill:#00A85F;}
	.st5{fill:#4EC462;}
	.st6{fill:#9AD89C;}
</style>
<g>
	
		<ellipse transform="matrix(6.961004e-02 -0.9976 0.9976 6.961004e-02 17.8967 544.171)" class="st0" cx="300.7" cy="262.5" rx="196" ry="166.2"/>
	<g id="freepik--Shield--inject-82">
		<path class="st1" d="M384.4,109.7c-1,0-2,0-3,0.1c-5.6,0.4-11.2,0.6-16.8,0.4c-2-0.4-4-0.5-6-0.4h-0.6c-15.8-1.2-31.4-4-46.5-8.4
			c-1.6-0.5-98.9,327.9-100.8,328.3c17,12.4,36.2,21.2,56.8,25.6l113.3-75.6c8-5.3,13-14,13.4-23.6l8.8-226
			C403.5,119.3,395.2,110.1,384.4,109.7z"/>
		<path class="st2" d="M360.4,84.5c-5.6,0.4-11.2,0.6-16.7,0.4c-2-0.4-4-0.6-6-0.4H337c-15.8-1.1-31.4-4-46.5-8.4
			c-19-5.9-36.5-15.8-51.4-29.1c-3.6-3.5-8.4-5.4-13.4-5.4h-22.8c-5.1,0-10,1.9-13.8,5.4c-15.8,13.2-34,23.1-53.7,29.1
			c-15.4,4.4-31.2,7.2-47.2,8.4h-0.6c-2-0.2-4.1,0-6,0.4c-5.6,0.2-11.1,0-16.7-0.4c-11.8-0.9-22.2,8-23.1,19.8c0,0.2,0,0.4,0,0.6
			l-8.8,226c-0.4,9.3,3.9,18.2,11.5,23.6l126.6,89.1c4.7,3.3,10.2,5,15.9,5h22.7c5.8,0,11.5-1.8,16.3-5l133.5-89.1
			c8-5.3,13-14,13.4-23.6l8.7-226c0.4-10.8-8-20-18.8-20.4C362.1,84.4,361.3,84.5,360.4,84.5z"/>
		<path class="st3" d="M360.4,84.5c-5.6,0.4-11.2,0.6-16.7,0.4c-2-0.4-4-0.6-6-0.4H337c-15.8-1.1-31.4-4-46.5-8.4
			c-19-5.9-36.5-15.8-51.4-29.1c-3.6-3.5-8.4-5.4-13.4-5.4h-22.8c-5.1,0-10,1.9-13.8,5.4c-15.8,13.2-34,23.1-53.7,29.1
			c-15.4,4.4-31.2,7.2-47.2,8.4h-0.6c-2-0.2-4.1,0-6,0.4c-5.6,0.2-11.1,0-16.7-0.4c-11.8-0.9-22.2,8-23.1,19.8c0,0.2,0,0.4,0,0.6
			l-8.8,226c-0.4,9.3,3.9,18.2,11.5,23.6l126.6,89.1c4.7,3.3,10.2,5,15.9,5h22.7c5.8,0,11.5-1.8,16.3-5l133.5-89.1
			c8-5.3,13-14,13.4-23.6l8.7-226c0.4-10.8-8-20-18.8-20.4C362.1,84.4,361.3,84.5,360.4,84.5z"/>
		<path class="st4" d="M47.8,330.5l8.4-216.1c0.4-8.2,7.1-14.7,15.4-14.8h4.9c21.3-0.3,42.4-3.4,62.8-9.4
			c19.4-5.9,37.6-15.2,53.7-27.5c5.5-4.5,13.3-4.5,18.8,0c15.3,12.4,32.8,21.7,51.6,27.5c20.2,6,41,9.2,62.1,9.4h4.5
			c7.9-0.1,14.4,6.3,14.5,14.2c0,0.3,0,0.5,0,0.8l-8.4,215.8c-0.2,4.9-2.8,9.5-6.9,12.2l-132.7,88.6c-5,3.4-11.7,3.4-16.7,0
			L53.9,342.7C49.9,340,47.6,335.3,47.8,330.5z"/>
		<path class="st5" d="M84.7,319.1l7.1-183.7c19-1.5,37.8-4.9,56.1-10.2c18.7-5.6,36.5-13.8,52.9-24.3c15.7,10.6,32.9,18.8,51,24.3
			c18,5.3,36.6,8.7,55.3,10.2l-7.1,183.7l-110.5,73.7L84.7,319.1z"/>
		<path class="st6" d="M121.8,299.9l5.1-132.7c9.8-1.9,19.7-4.2,29.5-7c14.7-4.3,28.9-10.1,42.5-17.1c13.1,7.1,27,12.8,41.3,17.1
			c9.7,2.8,19.4,5.1,29.1,7l-5.1,132.7l-73,48.9L121.8,299.9z"/>
	</g>
</g>
</svg>
