<?xml version="1.0" encoding="utf-8"?>
<!-- Generator: Adobe Illustrator 27.9.0, SVG Export Plug-In . SVG Version: 6.00 Build 0)  -->
<svg version="1.1" id="圖層_1" xmlns="http://www.w3.org/2000/svg" xmlns:xlink="http://www.w3.org/1999/xlink" x="0px" y="0px"
	 viewBox="0 0 500 500" style="enable-background:new 0 0 500 500;" xml:space="preserve">
<style type="text/css">
	.st0{fill:#00BD00;}
	.st1{fill:#FFFFFF;}
</style>
<g id="Cb2uaY_00000047748684883484137550000001799118759590697383_">
	<g>
		<path class="st0" d="M251.6,25.6c4.5,0,9-0.1,13.4,0c4.7,0.2,9.3,0.7,14,1.1c3.9,0.4,7.9,0.7,11.8,1.3c7.6,1.2,15.3,2.4,22.8,4
			c15.6,3.4,30.9,8.2,45.6,14.3c17.6,7.4,34.3,16.5,49.8,27.8c10.7,7.8,20.7,16.4,29.8,26c11,11.5,20.4,24.2,28.2,38.1
			c7.8,14,13.5,28.8,17,44.4c1.8,8,3,16.1,3.4,24.2c0.2,5.5,0.4,11.1,0.2,16.6c-0.4,10.5-1.9,20.9-4.6,31.1
			c-6.1,23.9-17.7,44.9-32.8,64.3c-6.1,7.9-12.7,15.3-19.5,22.5c-12.4,13.3-25.9,25.3-39.9,36.9c-18.3,15.2-37.4,29.3-56.9,42.8
			c-21.7,15.1-43.9,29.5-67,42.4c-6.2,3.5-12.4,6.9-19.2,9.3c-3.1,1.1-6.2,1.8-9.6,1.8c-5,0.1-7.7-2.9-7.9-7.8
			c-0.1-2.4,0.2-4.8,0.5-7.2c1.1-7.1,2.5-14.1,3.5-21.2c0.8-5.1,1-10.2,0.6-15.3c-0.5-5.8-3.1-10.1-8.3-12.8
			c-4.8-2.5-9.9-4.3-15.3-5c-19.8-2.8-39.2-7.4-58-14.3c-16.7-6.1-32.7-13.9-47.8-23.4C95,361.1,85,353.5,75.5,345
			c-10.9-9.8-20.7-20.7-29.2-32.7c-11.8-16.7-20.6-34.9-25.9-54.8c-2.6-9.7-4.3-19.6-4.9-29.6c-0.5-8.4-0.5-16.9,0.3-25.3
			c1.6-17.3,5.9-34,12.9-49.9c7.5-17,17.6-32.4,29.9-46.4C73.3,89.5,90.4,75.6,109.4,64c13.2-8.1,27-14.8,41.4-20.3
			c13.3-5.1,27-9.1,41-12c7.8-1.6,15.7-3.1,23.7-3.9c4.3-0.5,8.6-1,12.9-1.2c7.7-0.5,15.5-0.8,23.2-1.2
			C251.6,25.4,251.6,25.5,251.6,25.6z M296.1,229.7c-0.2,0.1-0.3,0.1-0.5,0.2c-0.5-0.7-1.1-1.4-1.6-2.1
			c-14.6-19.7-29.3-39.4-43.8-59.1c-1.6-2.2-3.6-3.2-6.3-3.2c-4.4,0.1-8.8,0.1-13.2,0c-4.6-0.1-6.8,1.8-6.7,6.8
			c0.1,33.1,0,66.3,0.1,99.4c0,0.7,0,1.4,0.1,2.1c0.3,2.1,1.5,3.5,3.6,4c0.8,0.2,1.5,0.3,2.3,0.3c4.8,0,9.5,0,14.3,0
			c0.7,0,1.4-0.1,2.1-0.2c2.3-0.5,3.7-2.1,3.9-4.5c0.1-0.8,0-1.6,0-2.3c0-18.3,0-36.5,0-54.8c0-0.8,0-1.6,0.1-2.4
			c0.8,0.4,1.3,0.9,1.7,1.5c8.2,11.1,16.4,22.2,24.7,33.2c6.6,8.9,13.2,17.8,19.8,26.7c1.2,1.6,2.6,2.8,4.7,2.9
			c5.4,0.1,10.8,0.1,16.2,0c3.2-0.1,4.9-2,5.1-5.2c0-0.6,0-1.1,0-1.7c0-33,0-66,0-99c0-0.9,0-1.7-0.1-2.5c-0.4-2.1-1.8-3.5-3.9-4
			c-0.8-0.1-1.6-0.2-2.3-0.2c-4.6,0-9.1,0-13.7,0c-0.8,0-1.6,0.1-2.3,0.2c-2.2,0.4-3.5,1.8-3.8,4c-0.1,1-0.1,2-0.1,3
			c0,18.2,0,36.4,0,54.6C296.1,228.1,296.1,228.9,296.1,229.7z M364.4,234.8c1.2,0,2.1,0,3,0c13,0,26,0,39.1,0c1,0,2,0,3-0.1
			c2.5-0.2,4.2-1.9,4.4-4.4c0-0.3,0-0.6,0-0.9c0-5.1,0-10.2,0-15.4c0-3.5-1.9-5.3-5.4-5.4c-0.6,0-1.1,0-1.7,0c-13.2,0-26.5,0-39.7,0
			c-0.8,0-1.7,0-2.4,0c-0.5-2.2-0.5-15.3,0-17.1c0.7,0,1.5,0,2.3,0c9.8,0,19.6,0,29.4,0c4.2,0,8.4,0,12.6,0c1.8,0,3.3-0.6,4.1-2.2
			c0.5-1,0.8-2.1,0.8-3.2c0.1-4.8-0.1-9.5,0.1-14.3c0.2-4-1.7-6.6-6.4-6.5c-0.1,0-0.3,0-0.4,0c-20.8,0-41.6,0-62.3,0
			c-4.6,0-6.8,1.7-6.8,6.8c0.1,33.1,0.1,66.1,0.1,99.2c0,0.6,0,1.1,0,1.7c0.2,2.7,1.6,4.3,4.3,4.8c0.7,0.1,1.4,0.1,2.1,0.1
			c21,0,42,0,63,0c0.8,0,1.6-0.1,2.3-0.2c2.6-0.5,4.1-2.2,4.2-4.9c0-1,0-2,0-3c0-4.3-0.1-8.7,0-13c0.1-2.6-2.1-5.3-5.1-5.1
			c-0.7,0.1-1.4,0-2.1,0c-13.2,0-26.5,0-39.7,0c-0.8,0-1.7,0-2.6,0C364.4,246.2,364.4,240.7,364.4,234.8z M118.7,251.7
			c0-1.2,0-2.1,0-3.1c0-25.3,0-50.6,0-75.9c0-1,0-2-0.1-3c-0.2-2-1.6-3.5-3.6-4c-0.8-0.2-1.5-0.2-2.3-0.2c-4.7,0-9.4,0-14.1,0
			c-0.8,0-1.6,0.1-2.3,0.2c-2,0.4-3.4,1.9-3.7,3.9c-0.1,1-0.1,2.1-0.1,3.2c0,32.7,0,65.4,0,98.1c0,0.6,0,1.3,0,1.9
			c0.1,3.1,1.8,4.9,4.8,5.2c0.6,0.1,1.3,0,1.9,0c7.2,0,14.4,0,21.6,0c13.9,0,27.7,0,41.6,0c4.2,0,6-1.9,6.1-6c0-3.4,0-6.8,0-10.2
			c0-1.7,0-3.4,0-5.1c-0.1-3.1-2.5-5.1-5.1-4.9c-0.6,0.1-1.3,0-1.9,0c-13.3,0-26.6,0-39.9,0C120.6,251.9,119.8,251.8,118.7,251.7z
			 M182.1,221.7c0,16.8,0,33.7,0,50.5c0,2.9,1.2,5.7,5.3,5.8c5.2,0.2,10.4,0.1,15.6,0c3.4-0.1,5.1-1.9,5.4-5.3c0-0.4,0-0.9,0-1.3
			c0-33,0-66.1,0-99.1c0-5.1-1.6-6.8-6.8-6.8c-4.3,0-8.7,0-13,0c-0.8,0-1.6,0.1-2.3,0.2c-2.5,0.4-3.9,2-4.1,4.4
			c-0.1,0.8,0,1.6,0,2.3C182.1,188.9,182.1,205.3,182.1,221.7z"/>
		<path class="st1" d="M296.1,229.7c0-0.8,0-1.6,0-2.5c0-18.2,0-36.4,0-54.6c0-1,0-2,0.1-3c0.3-2.2,1.7-3.6,3.8-4
			c0.8-0.1,1.6-0.2,2.3-0.2c4.6,0,9.1,0,13.7,0c0.8,0,1.6,0.1,2.3,0.2c2.2,0.4,3.6,1.8,3.9,4c0.1,0.8,0.1,1.7,0.1,2.5
			c0,33,0,66,0,99c0,0.6,0,1.1,0,1.7c-0.2,3.2-1.9,5.1-5.1,5.2c-5.4,0.1-10.8,0.1-16.2,0c-2.1,0-3.5-1.2-4.7-2.9
			c-6.6-8.9-13.2-17.8-19.8-26.7c-8.2-11.1-16.4-22.2-24.7-33.2c-0.4-0.5-0.8-1.1-1.7-1.5c0,0.8-0.1,1.6-0.1,2.4
			c0,18.3,0,36.5,0,54.8c0,0.8,0,1.6,0,2.3c-0.2,2.3-1.5,3.9-3.9,4.5c-0.7,0.2-1.4,0.2-2.1,0.2c-4.8,0-9.5,0-14.3,0
			c-0.8,0-1.6-0.1-2.3-0.3c-2.1-0.5-3.2-1.9-3.6-4c-0.1-0.7-0.1-1.4-0.1-2.1c0-33.1,0-66.3-0.1-99.4c0-5,2.2-6.9,6.7-6.8
			c4.4,0.1,8.8,0.1,13.2,0c2.7,0,4.7,1,6.3,3.2c14.6,19.7,29.2,39.4,43.8,59.1c0.5,0.7,1.1,1.4,1.6,2.1
			C295.7,229.9,295.9,229.8,296.1,229.7z"/>
		<path class="st1" d="M364.4,234.8c0,5.9,0,11.3,0,17.1c1,0,1.8,0,2.6,0c13.2,0,26.5,0,39.7,0c0.7,0,1.4,0.1,2.1,0
			c3-0.2,5.1,2.5,5.1,5.1c-0.1,4.3,0,8.7,0,13c0,1,0,2,0,3c-0.1,2.7-1.5,4.4-4.2,4.9c-0.8,0.1-1.5,0.2-2.3,0.2c-21,0-42,0-63,0
			c-0.7,0-1.4,0-2.1-0.1c-2.7-0.5-4.1-2.1-4.3-4.8c0-0.6,0-1.1,0-1.7c0-33.1,0-66.1-0.1-99.2c0-5.1,2.2-6.8,6.8-6.8
			c20.8,0.1,41.6,0,62.3,0c0.1,0,0.3,0,0.4,0c4.8-0.1,6.6,2.5,6.4,6.5c-0.2,4.8,0,9.5-0.1,14.3c0,1.1-0.3,2.3-0.8,3.2
			c-0.8,1.6-2.3,2.2-4.1,2.2c-4.2,0-8.4,0-12.6,0c-9.8,0-19.6,0-29.4,0c-0.8,0-1.6,0-2.3,0c-0.5,1.8-0.5,14.9,0,17.1
			c0.8,0,1.6,0,2.4,0c13.2,0,26.5,0,39.7,0c0.6,0,1.1,0,1.7,0c3.5,0.1,5.4,1.9,5.4,5.4c0,5.1,0,10.2,0,15.4c0,0.3,0,0.6,0,0.9
			c-0.3,2.5-1.9,4.2-4.4,4.4c-1,0.1-2,0.1-3,0.1c-13,0-26,0-39.1,0C366.5,234.8,365.6,234.8,364.4,234.8z"/>
		<path class="st1" d="M118.7,251.7c1.1,0.1,2,0.1,2.8,0.1c13.3,0,26.6,0,39.9,0c0.6,0,1.3,0,1.9,0c2.5-0.2,5,1.8,5.1,4.9
			c0,1.7,0,3.4,0,5.1c0,3.4,0,6.8,0,10.2c0,4.1-1.9,6-6.1,6c-13.9,0-27.7,0-41.6,0c-7.2,0-14.4,0-21.6,0c-0.6,0-1.3,0-1.9,0
			c-3.1-0.3-4.7-2.1-4.8-5.2c0-0.6,0-1.3,0-1.9c0-32.7,0-65.4,0-98.1c0-1.1,0-2.1,0.1-3.2c0.3-2.1,1.6-3.5,3.7-3.9
			c0.8-0.2,1.5-0.2,2.3-0.2c4.7,0,9.4,0,14.1,0c0.8,0,1.6,0.1,2.3,0.2c2,0.5,3.4,2,3.6,4c0.1,1,0.1,2,0.1,3c0,25.3,0,50.6,0,75.9
			C118.7,249.6,118.7,250.6,118.7,251.7z"/>
		<path class="st1" d="M182.1,221.7c0-16.4,0-32.8,0-49.2c0-0.8,0-1.6,0-2.3c0.2-2.5,1.7-4,4.1-4.4c0.8-0.1,1.6-0.2,2.3-0.2
			c4.3,0,8.7,0,13,0c5.1,0,6.8,1.7,6.8,6.8c0,33,0,66.1,0,99.1c0,0.4,0,0.9,0,1.3c-0.2,3.4-1.9,5.3-5.4,5.3
			c-5.2,0.1-10.4,0.1-15.6,0c-4.2-0.1-5.3-2.8-5.3-5.8C182.1,255.4,182.1,238.6,182.1,221.7z"/>
	</g>
</g>
</svg>
